<?xml version="1.0" encoding="UTF-8" standalone="no"?>
<!-- Created with Inkscape (http://www.inkscape.org/) -->

<svg
   xmlns:dc="http://purl.org/dc/elements/1.1/"
   xmlns:cc="http://creativecommons.org/ns#"
   xmlns:rdf="http://www.w3.org/1999/02/22-rdf-syntax-ns#"
   xmlns:svg="http://www.w3.org/2000/svg"
   xmlns="http://www.w3.org/2000/svg"
   xmlns:sodipodi="http://sodipodi.sourceforge.net/DTD/sodipodi-0.dtd"
   xmlns:inkscape="http://www.inkscape.org/namespaces/inkscape"
   version="1.1"
   id="svg817"
   width="226.66667"
   height="226.66667"
   viewBox="0 0 226.66667 226.66667"
   sodipodi:docname="cs50.svg"
   inkscape:version="0.92.4 (5da689c313, 2019-01-14)">
  <metadata
     id="metadata823">
    <rdf:RDF>
      <cc:Work
         rdf:about="">
        <dc:format>image/svg+xml</dc:format>
        <dc:type
           rdf:resource="http://purl.org/dc/dcmitype/StillImage" />
        <dc:title></dc:title>
      </cc:Work>
    </rdf:RDF>
  </metadata>
  <defs
     id="defs821" />
  <sodipodi:namedview
     pagecolor="#ffffff"
     bordercolor="#666666"
     borderopacity="1"
     objecttolerance="10"
     gridtolerance="10"
     guidetolerance="10"
     inkscape:pageopacity="0"
     inkscape:pageshadow="2"
     inkscape:window-width="1920"
     inkscape:window-height="1017"
     id="namedview819"
     showgrid="false"
     inkscape:zoom="1.0411764"
     inkscape:cx="113.33334"
     inkscape:cy="113.33334"
     inkscape:window-x="-8"
     inkscape:window-y="-8"
     inkscape:window-maximized="1"
     inkscape:current-layer="svg817" />
  <g
     id="g1370"
     transform="translate(0.9604563)">
    <path
       style="fill:#fdcb00;stroke-width:1.33333337"
       d="M 0,113.33334 V 0 H 113.33334 226.66667 V 113.33334 226.66667 H 113.33334 0 Z"
       id="path1408"
       inkscape:connector-curvature="0" />
    <path
       style="fill:#fdc200;stroke-width:1.33333337"
       d="M 0,113.33334 V 0 H 113.33334 226.66667 V 113.33334 226.66667 H 113.33334 0 Z m 56.972224,68.52777 c -0.443057,-0.44305 -1.593057,-0.49041 -2.555557,-0.1052 -1.063644,0.42563 -0.747701,0.74157 0.805556,0.80555 1.405555,0.0579 2.193055,-0.25724 1.750001,-0.7003 z m 14.439604,-1.268 c 2.546758,-2.04037 2.545502,-2.05392 -0.07849,-0.84683 -1.466666,0.6747 -3.566666,1.56043 -4.666666,1.9683 -1.727659,0.64058 -1.71697,0.7559 0.07849,0.84682 1.143172,0.0579 3.243172,-0.82782 4.666666,-1.96829 z m 22.893729,1.268 c -0.443056,-0.44305 -1.593056,-0.49041 -2.555556,-0.1052 -1.063644,0.42563 -0.747701,0.74157 0.805556,0.80555 1.405555,0.0579 2.193055,-0.25724 1.75,-0.7003 z m 33.333333,0 c -0.44305,-0.44305 -1.59305,-0.49041 -2.55555,-0.1052 -1.06365,0.42563 -0.74771,0.74157 0.80555,0.80555 1.40556,0.0579 2.19306,-0.25724 1.75,-0.7003 z m 38.66667,0 c -0.44306,-0.44305 -1.59306,-0.49041 -2.55556,-0.1052 -1.06364,0.42563 -0.7477,0.74157 0.80556,0.80555 1.40555,0.0579 2.19306,-0.25724 1.75,-0.7003 z m -80.061377,-2.67045 c -3.102326,-1.68167 -3.471144,-2.37892 -2.119715,-4.0073 0.899857,-1.08426 2.589975,-1.60853 3.755819,-1.16504 1.677156,0.63799 1.778322,0.46238 0.484553,-0.84116 -1.296875,-1.30664 -2.215215,-1.12254 -4.438931,0.8899 l -2.803768,2.53737 2.919975,2.36445 c 1.605987,1.30046 3.603505,2.34043 4.438931,2.31107 0.835425,-0.0293 -0.171164,-0.96955 -2.236864,-2.08929 z m -36.910849,0.37509 c 0,-0.23883 -1.65,-1.88883 -3.666667,-3.66667 l -3.666666,-3.23241 3.232418,3.66667 c 3.021183,3.42705 4.100915,4.27812 4.100915,3.23241 z m 64.000006,-8.94727 c 0,-3.41081 -0.89969,-5.63357 -3.00001,-7.41182 -2.99697,-2.53743 -2.99764,-2.53719 -0.66666,0.23166 2.61479,3.10599 3.05508,9.9096 0.92644,14.316 -1.35904,2.81331 -1.33637,2.82434 0.66667,0.32418 1.14045,-1.4235 2.07356,-4.78051 2.07356,-7.46002 z m 5.9639,7.98979 c -0.47308,-0.76547 -0.14417,-2.25444 0.7309,-3.30884 1.38204,-1.66525 1.96155,-1.65757 4.41146,0.0584 2.98553,2.09115 10.95531,2.69992 12.05486,0.92081 0.3585,-0.58008 -1.41044,-0.81392 -3.931,-0.51966 -2.73719,0.31956 -5.86206,-0.30318 -7.75928,-1.54628 -2.9295,-1.91948 -3.35357,-1.8856 -5.45427,0.43564 -1.96841,2.17509 -1.88483,5.35166 0.1408,5.35166 0.36667,0 0.27961,-0.62628 -0.19347,-1.39173 z m 27.36943,-4.41867 c 0,-1.69405 -0.61587,-0.93764 -2.55961,3.14374 -1.49687,3.14302 -1.46911,3.18557 0.48605,0.74516 1.14047,-1.4235 2.07356,-3.1735 2.07356,-3.8889 z m -71.8507,0.0337 c -2.329376,-2.32938 -3.062105,-2.48943 -4.467821,-0.97592 -1.356461,1.46048 -1.348036,1.62156 0.04359,0.83336 2.119726,-1.20058 5.905022,1.69365 4.720901,3.60961 -0.522871,0.84601 -0.204212,0.9842 0.815836,0.35377 1.259107,-0.77817 0.983459,-1.72485 -1.112508,-3.82082 z m -11.149302,2.19089 c -1.283334,-0.33536 -3.383334,-0.33536 -4.666667,0 -1.283333,0.33537 -0.233333,0.60977 2.333333,0.60977 2.566667,0 3.616667,-0.2744 2.333334,-0.60977 z m 33.305556,0.1136 c -0.443056,-0.44305 -1.593056,-0.49041 -2.555556,-0.1052 -1.063644,0.42563 -0.747701,0.74157 0.805556,0.80555 1.405555,0.0579 2.193055,-0.25724 1.75,-0.7003 z m 58.756216,-1.80047 c -0.89512,-1.43332 -1.8857,-2.34781 -2.2013,-2.03222 -0.57146,0.57146 2.33432,4.63825 3.31409,4.63825 0.28308,0 -0.21767,-1.17271 -1.11279,-2.60603 z m 18.12246,1.51395 c 0.37121,-0.60064 -1.09338,-0.83253 -3.25464,-0.51533 -2.16128,0.31721 -3.92959,0.80864 -3.92959,1.09208 0,1.01597 6.52355,0.49226 7.18423,-0.57675 z m -67.44174,-3.60987 c -0.41051,-0.41052 -1.15606,0.32948 -1.65677,1.64444 -0.72358,1.90027 -0.57043,2.05342 0.7464,0.7464 0.91122,-0.90445 1.32089,-1.98032 0.91037,-2.39084 z m 58.92418,2.86515 c 0,-0.27687 -1.05,-1.32687 -2.33334,-2.33333 -2.11474,-1.6585 -2.1619,-1.61134 -0.50341,0.50341 1.74183,2.221 2.83675,2.92731 2.83675,1.82992 z M 53.333334,174.16326 c 0,-0.27687 -1.05,-1.32687 -2.333333,-2.33334 -2.114742,-1.65849 -2.161902,-1.61133 -0.503407,0.50342 1.741825,2.221 2.83674,2.9273 2.83674,1.82992 z M 179.7425,168.63139 c -0.41052,-0.41052 -1.15607,0.32948 -1.65678,1.64444 -0.72357,1.90027 -0.57042,2.05341 0.7464,0.7464 0.91123,-0.90445 1.3209,-1.98032 0.91038,-2.39084 z M 152.91082,167.75 c -0.42563,-1.06364 -0.74158,-0.7477 -0.80555,0.80556 -0.0579,1.40555 0.25723,2.19306 0.70029,1.75 0.44306,-0.44305 0.49042,-1.59306 0.1052,-2.55556 z M 40.910819,166.41667 c -0.425634,-1.06364 -0.741577,-0.74771 -0.805556,0.80556 -0.05789,1.40555 0.257238,2.19305 0.700294,1.75 0.443054,-0.44307 0.490424,-1.59307 0.105266,-2.55556 z m 62.422511,0.25 c -0.45322,-0.73333 -1.53863,-1.32415 -2.41202,-1.31292 -0.954153,0.012 -0.7897,0.53631 0.41202,1.31292 2.5615,1.65537 3.02308,1.65537 2,0 z m 56.21638,-3 c -0.36988,-0.91667 -0.67252,-0.16667 -0.67252,1.66667 0,1.83333 0.30264,2.58333 0.67252,1.66666 0.36988,-0.91666 0.36988,-2.41666 0,-3.33333 z M 47.609682,159.68222 c -0.318924,-1.65855 -0.591971,-0.61555 -0.606771,2.31778 -0.0148,2.93334 0.24614,4.29034 0.579863,3.01555 0.333724,-1.27479 0.345832,-3.67479 0.02691,-5.33333 z m 91.056988,4.98445 c -0.91292,-1.1 -2.30107,-2 -3.08476,-2 -0.78371,0 -0.26024,0.88092 1.16325,1.9576 3.34463,2.52975 3.99778,2.54416 1.92151,0.0424 z m 48.94097,-6.33333 c -0.3178,-1.65 -0.57782,-0.3 -0.57782,3 0,3.3 0.26002,4.65 0.57782,3 0.31782,-1.65 0.31782,-4.35 0,-6 z m -89.302083,6.19444 c -0.443056,-0.44306 -1.593056,-0.49042 -2.555556,-0.1052 -1.063644,0.42562 -0.747701,0.74157 0.805556,0.80554 1.405555,0.0579 2.193055,-0.25722 1.75,-0.70029 z m 82.618433,-4.16907 C 180.58594,159.06142 180.28711,159.8 180.25994,162 c -0.0272,2.2 0.24941,3.26142 0.61465,2.35871 0.36523,-0.90271 0.38745,-2.70271 0.0495,-4 z m -55.59065,2.6892 c -1.1,-0.40787 -3.2,-1.2936 -4.66667,-1.96829 -2.624,-1.2071 -2.62525,-1.19355 -0.0785,0.84682 1.42349,1.14047 3.52349,2.02619 4.66666,1.9683 1.79546,-0.0909 1.80615,-0.20624 0.0785,-0.84683 z m 26.24414,-1.96457 c -0.42562,-1.06364 -0.74157,-0.74771 -0.80554,0.80556 -0.0579,1.40554 0.25722,2.19305 0.70029,1.75 0.44305,-0.44307 0.49041,-1.59307 0.1052,-2.55556 z m -19.24414,0.70029 c -0.91667,-0.36988 -2.41667,-0.36988 -3.33334,0 -0.91666,0.36988 -0.16666,0.67252 1.66667,0.67252 1.83333,0 2.58333,-0.30264 1.66667,-0.67252 z m -46.539903,-2.5078 c -0.434246,-1.13163 -1.075497,-1.77155 -1.425001,-1.42204 -0.349504,0.34951 -0.239971,1.27539 0.243407,2.05751 1.314733,2.12728 2.083173,1.71401 1.181594,-0.63547 z m 57.618393,0.0151 c -1.42349,-1.07668 -3.22349,-1.93634 -4,-1.91035 -0.77651,0.026 0.0881,0.90472 1.92151,1.95275 4.319,2.46897 5.37046,2.44752 2.07849,-0.0424 z m 21.22465,-9.60318 c 1.93172,-1.6616 2.93211,-3.02109 2.22307,-3.02109 -2.55312,0 -8.19164,8.23689 -8.0564,11.76897 0.12013,3.13594 0.26777,3.00596 1.2288,-1.08121 0.60077,-2.55508 2.67281,-6.00508 4.60453,-7.66667 z m -123.725661,6.06224 c -0.425634,-1.06364 -0.741577,-0.7477 -0.805556,0.80556 -0.05789,1.40555 0.257238,2.19306 0.700294,1.75 0.443054,-0.44306 0.490424,-1.59306 0.105266,-2.55556 z m 53.755849,1.05936 c 0,-0.28821 -0.931163,-0.88133 -2.069251,-1.31806 -1.186566,-0.45532 -1.721762,-0.2318 -1.254644,0.52401 0.783011,1.26695 3.323895,1.87393 3.323895,0.79405 z M 132.73321,142.6667 c 8.96151,0 11.26679,0.3962 11.26679,1.93637 0,1.43591 -2.15381,2.05874 -8.33333,2.40976 l -8.33333,0.47339 9,0.25691 c 8.77961,0.25061 9,0.17528 9,-3.07643 0,-3.32164 -0.0444,-3.33333 -12.66667,-3.33333 H 120 l 0.25211,8.33333 0.25212,8.33333 0.48109,-7.66666 0.48109,-7.66667 z m 2.29217,13.79208 c -0.90271,-0.36523 -2.70271,-0.38745 -4,-0.0493 -1.29729,0.33805 -0.55871,0.63688 1.64129,0.66405 2.2,0.0272 3.26141,-0.24941 2.35871,-0.61465 z m 17.88544,-2.04208 c -0.42563,-1.06364 -0.74158,-0.74771 -0.80555,0.80556 -0.0579,1.40555 0.25723,2.19305 0.70029,1.75 0.44306,-0.44307 0.49042,-1.59307 0.1052,-2.55556 z m -69.320164,-3.39129 c -0.338059,-1.2973 -0.636884,-0.55871 -0.664056,1.64129 -0.02717,2.2 0.24942,3.26141 0.614651,2.35871 0.36523,-0.90271 0.387462,-2.70271 0.0494,-4 z m 42.666664,0 c -0.33806,-1.2973 -0.63688,-0.55871 -0.66405,1.64129 -0.0272,2.2 0.24942,3.26141 0.61465,2.35871 0.36523,-0.90271 0.38746,-2.70271 0.0494,-4 z m 52.5748,1.9524 c -1.31682,-1.30702 -1.46997,-1.15387 -0.7464,0.7464 0.50071,1.31496 1.24626,2.05496 1.65678,1.64444 0.41052,-0.41052 8.5e-4,-1.48639 -0.91038,-2.39084 z M 52.666667,150.66667 C 53.993982,149.2 54.779967,148 54.413301,148 c -0.366667,0 -1.752652,1.2 -3.079967,2.66667 -1.327315,1.46667 -2.1133,2.66667 -1.746633,2.66667 0.366666,0 1.752652,-1.2 3.079966,-2.66667 z m 22.100915,-2.33333 3.232419,-3.66667 -3.333333,2.90453 c -2.965406,2.58394 -3.619012,2.69431 -5.921507,1 -1.423495,-1.04749 -3.523495,-1.9036 -4.666667,-1.90246 -1.14317,10e-4 0.02151,1.12761 2.588174,2.50328 2.566666,1.37566 4.712078,2.57473 4.767581,2.6646 0.05551,0.0899 1.555503,-1.48662 3.333333,-3.50328 z m 80.407838,1.59741 c 0.45532,-1.18656 0.2318,-1.72176 -0.52402,-1.25464 -0.72493,0.44803 -1.31806,1.3792 -1.31806,2.06925 0,1.91791 0.95569,1.49528 1.84208,-0.81461 z m -49.66183,-1.31627 c -2.46753,-1.07129 -5.16753,-1.92074 -6.000002,-1.88768 -2.112343,0.084 6.030952,3.71051 8.486412,3.77939 1.1,0.0308 -0.0189,-0.82041 -2.48641,-1.89171 z m -11.478307,-1.6903 c -0.410516,-0.41052 -1.486392,-8.6e-4 -2.390838,0.91037 -1.307022,1.31683 -1.15387,1.46997 0.746394,0.7464 1.314961,-0.50071 2.054961,-1.24625 1.644444,-1.65677 z m -34.396393,0.27026 c -0.443056,-0.44305 -1.593056,-0.49041 -2.555556,-0.1052 -1.063644,0.42563 -0.747701,0.74158 0.805556,0.80555 1.405555,0.0579 2.193055,-0.25723 1.75,-0.70029 z m 51.6375,-0.43564 c 0.42191,-0.68266 0.25732,-1.55626 -0.36575,-1.94134 -0.62307,-0.38508 -1.13286,0.17345 -1.13286,1.2412 0,2.24822 0.42045,2.44465 1.49861,0.70014 z m 69.64927,-2.13426 c -2.05756,-1.81016 -4.3963,-3.2912 -5.19719,-3.2912 -0.80088,0 0.58257,1.44861 3.07436,3.21914 5.89037,4.1854 6.83479,4.21746 2.12283,0.072 z m -89.557044,-3.0337 c -0.410516,-0.41052 -1.486392,-8.5e-4 -2.390837,0.91038 -1.307023,1.31682 -1.153871,1.46997 0.746393,0.7464 1.314961,-0.50071 2.054961,-1.24626 1.644444,-1.65678 z m -28.343239,-1.13209 c -0.902711,-0.36523 -2.702711,-0.38745 -4,-0.0493 -1.297291,0.33805 -0.558709,0.63688 1.641291,0.66405 2.2,0.0272 3.261418,-0.24941 2.358709,-0.61465 z M 171,140.45075 c -0.91666,-0.36988 -2.41666,-0.36988 -3.33333,0 -0.91667,0.36988 -0.16667,0.67252 1.66667,0.67252 1.83333,0 2.58333,-0.30264 1.66666,-0.67252 z"
       id="path1406"
       inkscape:connector-curvature="0" />
    <path
       style="fill:#fbbc00;stroke-width:1.33333337"
       d="M 0,113.33334 V 0 H 113.33334 226.66667 V 113.33334 226.66667 H 113.33334 0 Z m 69.883293,68.52696 c 1.155765,-0.44352 1.773675,-1.33664 1.373133,-1.98474 -0.400542,-0.64809 0.106774,-0.85792 1.127372,-0.46628 1.020599,0.39164 2.549642,-0.12413 3.397876,-1.14621 1.2031,-1.44964 0.964386,-2.38124 -1.08555,-4.23641 -2.44842,-2.21579 -2.854459,-2.2296 -5.948382,-0.20239 -3.765932,2.46753 -10.347,2.84081 -14.154929,0.80288 -3.596966,-1.92504 -6.592812,-8.28536 -6.592812,-13.99683 0,-9.87684 12.709187,-16.3875 20.853641,-10.6829 2.525124,1.76866 3.051095,1.6592 5.730282,-1.19267 2.920369,-3.1086 1.854425,-6.00708 -1.4566,-3.96076 -0.926739,0.57276 -1.178467,0.36745 -0.632536,-0.51588 0.870014,-1.40771 -6.605947,-4.26324 -11.161454,-4.26324 -4.781983,0 -12.034483,2.85489 -11.153697,4.39056 0.50301,0.87701 0.43948,1.16568 -0.14118,0.64148 -1.72421,-1.55655 -6.323834,1.61956 -5.490475,3.79127 0.425165,1.10796 0.178088,1.61056 -0.565751,1.15084 -0.726306,-0.44888 -1.919434,0.75901 -2.651394,2.68422 -2.886318,7.59159 -0.662554,23.30116 3,21.19323 0.91804,-0.52837 1.224369,-0.46968 0.680732,0.1304 -1.352318,1.49276 1.617485,4.8504 3.345518,3.78241 0.809819,-0.50049 0.988959,-0.21189 0.429932,0.69263 -0.576476,0.93276 0.271184,2.04373 2.127322,2.78816 3.527938,1.41492 15.831329,1.80421 18.968952,0.6002 z m 40.177317,-2.46636 c 2.35312,-2.35312 3.27273,-4.7303 3.27273,-8.46002 0,-6.5462 -2.55867,-8.94493 -13.561289,-12.71366 -7.194739,-2.4644 -8.438716,-3.35911 -8.438716,-6.06931 0,-4.41529 4.140594,-5.61832 11.164825,-3.24391 5.3027,1.7925 5.8773,1.75584 7.51164,-0.47925 2.4338,-3.32843 0.53872,-5.20363 -7.11419,-7.03953 -7.720635,-1.85215 -17.014809,0.54202 -16.712815,4.30522 0.100533,1.2528 -0.331874,1.95974 -0.960911,1.57098 -1.814421,-1.12138 -3.062029,6.091 -1.71646,9.92278 0.918712,2.61623 3.199025,4.2333 9.19154,6.51811 11.122276,4.24069 11.969706,4.83823 11.969706,8.43997 0,2.80723 -0.68986,3.23763 -5.775579,3.60334 -3.713792,0.26705 -6.966892,-0.36527 -9.11275,-1.77128 -3.10438,-2.03407 -3.513132,-2.02736 -5.859648,0.0963 -1.387361,1.25555 -2.164594,2.86187 -1.727186,3.56962 1.629032,2.63582 9.382368,4.9207 16.869101,4.97128 6.466572,0.0436 8.261212,-0.48176 11.000002,-3.22055 z m -26.633906,-1.90952 c -0.401871,-0.65024 0.312719,-2.00024 1.587977,-3 2.048223,-1.60574 2.125615,-1.57018 0.663555,0.30493 -0.910304,1.16747 -1.260304,2.51747 -0.777777,3 0.482526,0.48252 0.51273,0.87732 0.06712,0.87732 -0.445611,0 -1.139004,-0.53201 -1.540875,-1.18225 z m 0.67856,-24.92886 c 0.06397,-1.55326 0.379921,-1.8692 0.805556,-0.80556 0.385161,0.9625 0.337792,2.1125 -0.105267,2.55556 -0.443056,0.44306 -0.758188,-0.34445 -0.700293,-1.75 z m 57.183236,28.1343 c 2.30696,-1.19298 4.41888,-3.78318 5.32621,-6.53242 1.51909,-4.6029 0.6476,-12.01628 -1.27307,-10.82924 -0.5723,0.35371 -0.9583,-0.40044 -0.85777,-1.67588 0.11387,-1.44409 -0.69209,-2.25002 -2.13619,-2.13618 -1.27544,0.10053 -2.00876,-0.31916 -1.62961,-0.93264 0.94281,-1.5255 -7.82727,-3.04592 -11.26882,-1.95362 -2.46626,0.78276 -2.78258,0.34244 -2.78258,-3.87336 V 148 H 136 c 9.06667,0 9.33334,-0.0952 9.33334,-3.33333 0,-3.31968 -0.0515,-3.33333 -12.56133,-3.33333 h -12.56133 l -0.43867,10.13526 c -0.50526,11.67367 0.37693,12.79419 9.14688,11.6179 4.37535,-0.58687 5.98961,-0.178 8.25965,2.09204 1.55181,1.55181 2.82146,3.67861 2.82146,4.72622 0,5.42659 -10.01625,8.15426 -15.41182,4.19702 -2.25642,-1.65491 -2.88727,-1.62842 -4.92151,0.20665 -3.17743,2.86632 -2.94903,3.93905 1.33333,6.26228 4.74947,2.57663 15.41514,2.63927 20.2885,0.1192 z m 35.26146,1.17044 c 1.15576,-0.44352 1.77368,-1.33664 1.37314,-1.98474 -0.40055,-0.64809 0.1068,-0.85792 1.12737,-0.46628 2.35444,0.9035 5.50249,-2.76921 4.19164,-4.89021 -0.59221,-0.95823 -0.42329,-1.24908 0.422,-0.72667 0.79921,0.49395 2.04299,-0.94621 2.87268,-3.32628 5.47228,-15.69778 -5.56057,-32.21704 -19.89915,-29.79454 -11.36121,1.91946 -18.25698,15.7777 -14.26193,28.66176 1.02327,3.3 2.53573,5.8572 3.36107,5.68266 0.82766,-0.17504 1.15918,0.57236 0.73925,1.66667 -0.68928,1.79623 0.89497,2.64068 3.95641,2.10885 0.60451,-0.10493 0.75078,0.3727 0.32503,1.06156 -0.42575,0.68887 -0.0204,1.55638 0.90089,1.92778 2.41524,0.97373 12.422,1.0271 14.8916,0.0795 z m -13.78652,-9.37344 C 156.57219,164.61596 160.70307,148 168.8511,148 c 5.32746,0 8.27817,2.34284 9.94108,7.89315 4.2772,14.276 -7.91964,26.90275 -16.02874,16.59371 z m 22.78042,-11.15352 c 0,-1.83334 0.30264,-2.58334 0.67252,-1.66667 0.36988,0.91667 0.36988,2.41667 0,3.33333 -0.36988,0.91667 -0.67252,0.16667 -0.67252,-1.66666 z m -5.71394,-15.66667 c -1.65849,-2.11475 -1.61133,-2.16191 0.50342,-0.50341 2.221,1.74182 2.9273,2.83674 1.82992,2.83674 -0.27687,0 -1.32687,-1.05 -2.33334,-2.33333 z"
       id="path1404"
       inkscape:connector-curvature="0" />
    <path
       style="fill:#f1aa05;stroke-width:1.33333337"
       d="M 0,113.33334 V 0 H 113.33334 226.66667 V 113.33334 226.66667 H 113.33334 0 Z m 66.893304,69.29268 c 2.691316,-0.74751 6.188834,-2.40816 7.772262,-3.69035 2.869067,-2.32323 2.86985,-2.33948 0.227934,-4.73039 -2.454434,-2.22122 -2.951739,-2.24364 -6.70605,-0.30221 -5.043057,2.60787 -8.583517,2.65009 -13.399191,0.15981 -7.69637,-3.97994 -8.891608,-17.15502 -2.092254,-23.06288 4.041211,-3.51134 12.093453,-4.03434 16.049156,-1.0424 3.501663,2.64852 3.943708,2.55791 6.491617,-1.33069 2.202964,-3.36215 2.191562,-3.38153 -3.51332,-5.97072 -14.327441,-6.50259 -29.175835,0.64681 -32.327728,15.56557 -2.022604,9.57354 5.098343,21.62986 14.357917,24.30907 5.754455,1.66504 7.443579,1.67727 13.139657,0.0952 z m 37.400716,-0.0187 c 6.06589,-1.68459 9.03932,-5.64204 9.03932,-12.03071 0,-6.22716 -3.19959,-9.14857 -13.774132,-12.57664 -7.174265,-2.32576 -8.225873,-3.0928 -8.225873,-6 0,-3.08249 0.451516,-3.32278 6,-3.19318 3.299995,0.0771 7.298625,0.58362 8.885835,1.12565 2.21186,0.75535 3.25605,0.29377 4.471,-1.97637 1.87308,-3.4999 0.78313,-4.51391 -7.23581,-6.73167 -10.878003,-3.00848 -20.787692,2.34684 -20.787692,11.23392 0,6.46525 3.455107,9.94333 12.549471,12.63289 8.224531,2.43231 11.120771,5.03696 9.704571,8.72754 -1.09713,2.85908 -9.014715,2.89058 -14.492987,0.0577 -3.865847,-1.99911 -4.262087,-1.968 -6.760891,0.5308 -2.650272,2.65028 -2.648924,2.65795 0.872797,4.96547 3.072891,2.01342 9.27105,4.07792 13.460372,4.48337 0.733334,0.0709 3.565649,-0.49092 6.294019,-1.24867 z m 37.98418,-2.03399 c 1.61967,-1.04278 3.65534,-4.26733 4.5237,-7.16565 C 149.82195,163.32775 143.58172,156 131.97765,156 c -5.20042,0 -5.46599,-0.19221 -5.06621,-3.66666 0.40853,-3.55051 0.70702,-3.67916 9.4219,-4.06092 8.55934,-0.37495 9,-0.55448 9,-3.66667 0,-3.24268 -0.11408,-3.27241 -12.55726,-3.27241 H 120.21883 L 119.73082,151 c -0.57203,11.33083 0.92679,13.64378 7.99413,12.33638 8.85924,-1.63888 14.32319,3.3392 10.33908,9.4197 -2.52707,3.85679 -9.14701,4.40454 -13.80461,1.14222 -2.80848,-1.96714 -3.15999,-1.90486 -5.48998,0.97256 -2.4392,3.01228 -2.43468,3.11256 0.22438,4.97502 6.14166,4.30179 17.19629,4.6472 23.28438,0.72755 z m 37.85847,-0.67073 c 7.24296,-5.15745 10.09393,-20.18675 5.52793,-29.14125 -6.74584,-13.22939 -24.2031,-13.93375 -31.6578,-1.27731 -3.62873,6.16079 -3.61904,18.81015 0.0192,25.03121 5.21551,8.9181 17.57183,11.46754 26.11068,5.38735 z m -14.49805,-4.79508 C 162.73339,173.9387 160,167.05754 160,160.9127 c 0,-15.4768 16.63334,-17.77383 19.46348,-2.68786 2.09142,11.1482 -5.38513,20.27847 -13.82486,16.88278 z"
       id="path1402"
       inkscape:connector-curvature="0" />
    <path
       style="fill:#eda307;stroke-width:1.33333337"
       d="M 0,113.33334 V 0 H 113.33334 226.66667 V 113.33334 226.66667 H 113.33334 0 Z m 70.16884,68.10954 c 6.823545,-3.09858 7.5753,-4.26302 5.065497,-7.84626 l -1.987792,-2.83798 -4.289939,2.6157 c -7.23757,4.41294 -14.697815,2.8095 -18.736244,-4.027 -2.757957,-4.66886 -2.827756,-9.63852 -0.206561,-14.70736 3.525045,-6.81668 10.472524,-8.52544 18.269504,-4.49347 4.000471,2.06872 4.23586,2.03384 6.496171,-0.96272 2.812432,-3.72853 2.573572,-4.23788 -3.292802,-7.02165 -9.789106,-4.64524 -22.55406,-1.5178 -28.332303,6.94145 -10.159817,14.87383 -0.02245,34.25016 18.178963,34.74688 1.833334,0.05 5.809311,-1.03337 8.835506,-2.40759 z m 35.76666,0.67 c 5.34522,-2.23337 7.39784,-5.55549 7.39784,-11.97328 0,-5.96673 -3.14534,-8.9629 -12.50711,-11.91394 -3.962119,-1.24895 -7.942351,-3.16066 -8.844966,-4.24823 -4.079721,-4.91577 6.843361,-8.25289 12.969146,-3.96223 2.64955,1.85582 3.04209,1.77963 4.96334,-0.96334 2.91389,-4.16016 2.75537,-4.49458 -3.27406,-6.90708 -6.707702,-2.6839 -12.314322,-2.72626 -17.333043,-0.13094 -4.605291,2.38146 -6.639979,5.73232 -6.639979,10.93516 0,5.73062 3.394975,9.43468 10.611688,11.57782 9.102884,2.70326 12.054974,4.5099 12.054974,7.37744 0,4.63448 -8.847883,5.59104 -15.326206,1.65696 -3.932085,-2.38784 -4.028511,-2.37946 -6.333333,0.55065 -1.287251,1.63648 -2.340456,3.23965 -2.340456,3.5626 0,0.55652 7.696416,4.06039 12,5.46312 3.740293,1.21912 8.075595,0.86661 12.602165,-1.02471 z m 36.17481,-1.39588 c 4.2566,-2.78904 6.30689,-8.11964 5.37347,-13.97062 -1.10146,-6.90424 -4.75858,-9.7449 -13.4766,-10.46786 -7.15972,-0.59374 -7.46702,-0.77242 -7.07923,-4.11626 0.38745,-3.34098 0.80348,-3.51303 9.40539,-3.88984 8.55934,-0.37495 9,-0.55448 9,-3.66667 0,-3.24112 -0.11926,-3.27241 -12.47329,-3.27241 h -12.47328 l -0.80457,9.59689 c -0.98031,11.69315 0.16256,13.66461 7.26318,12.52919 9.49178,-1.5178 15.17049,3.26538 11.15413,9.39512 -2.49195,3.80321 -8.48159,4.20152 -13.52158,0.89918 -3.30762,-2.16722 -3.51317,-2.1337 -5.8413,0.95278 -2.34111,3.10368 -2.33415,3.2543 0.23353,5.05277 6.56085,4.5954 17.02992,5.02683 23.24015,0.95773 z m 37.639,-0.32893 c 7.89376,-5.89353 10.72719,-20.11735 5.91529,-29.69483 -7.11306,-14.15766 -25.88892,-13.96381 -32.3795,0.33431 -7.23739,15.94323 2.92097,34.34291 17.9328,32.48144 2.86985,-0.35587 6.70898,-1.76027 8.53141,-3.12092 z m -15.63463,-6.94005 c -3.45544,-3.45544 -4.6344,-8.191 -3.72576,-14.96538 1.3647,-10.17458 9.34026,-13.8243 15.61468,-7.14546 4.26232,4.53702 4.53294,14.84277 0.5312,20.22924 -3.50925,4.72358 -8.77968,5.52204 -12.42012,1.8816 z"
       id="path1400"
       inkscape:connector-curvature="0" />
    <path
       style="fill:#e5920c;stroke-width:1.33333337"
       d="M 0,113.33334 V 0 H 113.33334 226.66667 V 113.33334 226.66667 H 113.33334 0 Z m 68.133456,69.31841 c 2.640068,-0.73336 5.88306,-2.53001 7.20665,-3.99256 2.318322,-2.56172 2.318478,-2.75648 0.0043,-5.31369 -2.39862,-2.65044 -2.408852,-2.65044 -6.697363,0 -6.354666,3.9274 -10.829133,3.40569 -16.113648,-1.87883 -11.747851,-11.74785 0.999404,-28.94797 15.786623,-21.30121 4.027853,2.08288 4.280304,2.05089 6.620539,-0.83918 2.981522,-3.68202 1.594357,-5.83625 -5.202592,-8.07944 -6.632019,-2.18877 -16.557373,-0.9357 -21.722925,2.7425 -4.878972,3.47413 -9.275172,11.99453 -9.319029,18.06148 -0.05149,7.12425 5.281003,15.60138 11.919904,18.94918 6.550134,3.30304 10.300106,3.65663 17.517602,1.65175 z m 40.947084,-2.26211 c 4.52409,-3.37772 5.95133,-8.93457 3.68681,-14.35433 -1.74939,-4.18688 -3.85919,-5.46389 -14.327359,-8.67205 -2.691339,-0.82482 -5.614806,-2.36898 -6.496594,-3.43146 -4.044866,-4.87377 6.924658,-8.17685 13.007013,-3.9166 2.64955,1.85582 3.04209,1.77963 4.96334,-0.96334 2.95977,-4.22566 2.77111,-4.56975 -3.90293,-7.11859 -12.0302,-4.59437 -23.344152,0.49991 -23.344152,10.51108 0,6.56461 3.103236,9.70648 12.761761,12.92063 9.118681,3.0345 11.348531,5.28898 8.557481,8.652 -2.2912,2.76073 -9.176929,2.46633 -14.218771,-0.60792 l -4.232862,-2.58099 -2.25736,3.44516 c -2.141573,3.26845 -2.129629,3.52079 0.232863,4.91931 8.943303,5.29416 19.4259,5.7849 25.57076,1.1971 z m 30.90092,1.27496 c 8.24394,-4.13474 10.64462,-14.46289 4.91113,-21.12848 -2.51972,-2.92934 -4.53709,-3.73114 -10.66667,-4.23946 -7.5991,-0.63018 -8.54854,-1.50051 -6.74993,-6.1876 C 128.10159,148.47875 130.2959,148 137.14266,148 145.7016,148 146,147.88774 146,144.66667 c 0,-3.32423 -0.0349,-3.33333 -12.80853,-3.33333 h -12.80854 l -0.88294,9.50014 c -1.08933,11.72078 0.12113,13.7473 7.61135,12.74264 7.11732,-0.95462 11.55533,1.23631 11.55533,5.70458 0,6.54781 -6.2592,8.76325 -13.33333,4.7193 -4.4502,-2.54396 -4.6979,-2.50172 -7.13426,1.21663 -2.0659,3.15296 -1.99637,3.27168 3.51332,5.99895 6.85536,3.39336 12.13963,3.52322 18.26906,0.44902 z m 39.9031,-1.3284 c 10.39074,-7.60982 10.9262,-27.04041 0.99746,-36.19441 -4.90594,-4.52312 -14.69374,-5.24525 -20.6262,-1.5218 -8.98107,5.63689 -12.04542,19.94404 -6.58915,30.76416 5.17463,10.26161 17.30641,13.47853 26.21789,6.95205 z m -14.24594,-5.19954 c -5.5607,-2.33262 -7.28316,-15.75627 -2.93656,-22.88554 2.25882,-3.70493 3.36334,-4.34866 6.86318,-4 5.81308,0.57914 9.54587,5.95544 9.54587,13.74888 0,9.63919 -6.56047,16.03612 -13.47249,13.13666 z"
       id="path1398"
       inkscape:connector-curvature="0" />
    <path
       style="fill:#dd8211;stroke-width:1.33333337"
       d="M 0,113.33334 V 0 H 113.33334 226.66667 V 113.33334 226.66667 H 113.33334 0 Z m 69.709493,68.8732 c 2.359779,-0.9864 5.123315,-2.79766 6.141191,-4.025 1.594464,-1.9226 1.530697,-2.58514 -0.460588,-4.78548 -2.275608,-2.51452 -2.391804,-2.51195 -7.530199,0.16633 -3.579769,1.86588 -6.366513,2.43544 -8.872744,1.81343 -8.874538,-2.20254 -13.343235,-12.12687 -9.050042,-20.09886 3.807847,-7.07073 10.79145,-9.03717 18.301835,-5.1534 3.876019,2.00438 4.259056,1.97103 6.82405,-0.59396 2.223678,-2.22368 2.415209,-3.0818 1.053945,-4.72202 -4.506629,-5.43016 -21.11885,-6.17431 -27.88293,-1.24903 -4.490601,3.26984 -9.567344,13.05547 -9.567344,18.44145 0,14.95128 17.055694,26.05326 31.042826,20.20654 z m 40.712257,-2.68888 c 2.65924,-2.65924 3.51765,-4.85388 3.51765,-8.99334 0,-6.68678 -3.10947,-9.62714 -13.31973,-12.59534 C 92.259469,155.4986 89.524508,152.98279 92.000001,150 94.058404,147.51978 99.585245,147.49427 104,149.9447 c 2.89617,1.60748 3.63935,1.57417 5.66667,-0.25389 3.50201,-3.15784 2.85199,-5.14076 -2.521,-7.6904 -3.40851,-1.61746 -6.85995,-2.11082 -11.588207,-1.6565 -8.499402,0.81663 -12.890795,5.23402 -12.890795,12.96703 0,6.36353 3.635031,9.61855 14.157621,12.67755 7.678481,2.2322 9.902731,4.72569 7.161621,8.02852 -2.24106,2.7003 -7.758313,2.49137 -13.659633,-0.5173 l -4.904236,-2.50032 -2.147681,3.27778 c -1.998856,3.05064 -1.978831,3.40761 0.28898,5.15136 7.283781,5.60062 21.30041,5.64714 26.85841,0.0892 z m 29.56353,2.48996 c 8.91534,-4.61031 10.90932,-15.31815 4.11728,-22.11018 C 140.79732,156.59219 139.15492,156 133.29325,156 c -5.75495,0 -6.77642,-0.35302 -6.10257,-2.10905 0.44513,-1.15997 0.80932,-2.95997 0.80932,-4 C 128,148.43698 130.17726,148 137.4219,148 h 9.42189 l -0.42189,-3.66666 -0.4219,-3.66667 -12.839,-0.37968 -12.83901,-0.37967 -0.95615,10.20356 c -1.1788,12.57944 0.13572,14.55126 9.38155,14.07266 7.00991,-0.36287 9.91928,1.3994 9.91928,6.0083 0,4.61819 -5.44778,6.88671 -11.09399,4.6197 -6.33351,-2.54298 -7.64131,-2.43036 -9.86239,0.84925 -1.95784,2.89091 -1.82691,3.08525 3.79765,5.63739 6.98514,3.16949 13.25462,3.41021 18.47734,0.70944 z m 38.36024,-0.66708 c 6.63947,-4.04814 9.64367,-10.01295 9.6495,-19.159 C 188.00348,148.90374 180.80488,140 170.0614,140 c -10.74042,0 -17.94085,7.49198 -18.95648,19.72403 -1.47338,17.74523 13.76158,29.83477 27.2406,21.61651 z m -14.1659,-8.48267 C 156.55699,164.74395 160.41235,148 169.90323,148 c 8.43079,0 12.3896,17.82839 5.49071,24.72727 -4.11028,4.11029 -7.43916,4.14905 -11.21432,0.13067 z"
       id="path1396"
       inkscape:connector-curvature="0" />
    <path
       style="fill:#d87714;stroke-width:1.33333337"
       d="M 0,113.33334 V 0 H 113.33334 226.66667 V 113.33334 226.66667 H 113.33334 0 Z m 69.709493,68.8732 c 2.359779,-0.9864 5.141127,-2.81912 6.180771,-4.0727 1.659254,-2.00069 1.542796,-2.6267 -0.952942,-5.12244 -2.805777,-2.80578 -2.880328,-2.80961 -5.663428,-0.29094 -4.355992,3.94212 -12.41413,3.41204 -16.94056,-1.11439 -2.927711,-2.92772 -3.666667,-4.89181 -3.666667,-9.74575 0,-5.18134 0.643027,-6.65361 4.35437,-9.96969 4.890585,-4.36973 9.199441,-4.87933 15.166413,-1.79369 3.735159,1.93152 4.255807,1.91522 6.600454,-0.20666 3.484006,-3.15298 3.230745,-4.17829 -1.787903,-7.23822 -6.231281,-3.7993 -17.83724,-3.62876 -23.680226,0.34794 -7.716121,5.25155 -9.986441,9.54106 -9.986441,18.86823 0,6.99009 0.578061,9.09723 3.572836,13.02359 6.393515,8.38232 17.196412,11.33048 26.803323,7.31472 z m 40.680117,-2.65675 c 2.69166,-2.69165 3.54979,-4.87348 3.54979,-9.02547 0,-6.68678 -3.10947,-9.62714 -13.31973,-12.59534 C 92.259469,155.4986 89.524508,152.98279 92.000001,150 c 2.145274,-2.58489 7.075523,-2.54654 12.183259,0.0948 3.76405,1.94647 4.18114,1.92287 5.89138,-0.33333 2.9188,-3.85056 2.26174,-5.75696 -2.69848,-7.82948 -7.477527,-3.12431 -15.819031,-2.50908 -20.607192,1.51989 -3.392184,2.85432 -4.1023,4.4297 -4.1023,9.1009 0,7.17833 3.280999,10.36898 13.729855,13.35182 8.071287,2.3041 10.370317,4.76156 7.589387,8.11238 -2.27679,2.74337 -7.766995,2.47884 -13.616033,-0.65607 l -4.923965,-2.63908 -2.056289,2.93576 c -2.963839,4.23147 -2.677327,4.84937 3.610378,7.78631 8.091596,3.7795 18.564059,2.93144 23.389609,-1.89411 z m 33.83438,-0.69909 c 5.31497,-5.94848 5.26617,-13.56567 -0.12147,-18.95326 C 140.85459,156.64947 139.11559,156 133.66683,156 c -6.50636,0 -6.53545,-0.0196 -5.95124,-4 l 0.58708,-4 h 9.27056 9.27056 l -0.42189,-3.66666 -0.4219,-3.66667 -12.88185,-0.38019 -12.88185,-0.3802 -0.95252,10.16487 c -1.18572,12.65339 0.13308,14.55371 9.79418,14.11288 7.25916,-0.33124 10.07638,1.69059 9.35772,6.71575 -0.66552,4.65376 -6.54749,6.17662 -12.63831,3.27212 -4.75835,-2.2691 -4.97052,-2.258 -7.62741,0.39889 -3.01283,3.01283 -2.49741,4.0106 3.83004,7.41432 2.74765,1.47803 6.26175,1.98576 11.22398,1.62169 6.08546,-0.44648 7.8191,-1.19606 11.00001,-4.7561 z m 34.12153,2.48984 c 6.61235,-4.03159 9.64366,-10.01924 9.6495,-19.06032 0.009,-14.82928 -7.9882,-23.37922 -20.54539,-21.96384 -10.51824,1.18556 -16.78497,9.39168 -16.78089,21.97413 0.005,16.47532 14.98688,26.78716 27.67678,19.05003 z m -13.44946,-8.06498 c -4.27791,-3.36501 -5.77459,-10.41877 -3.68823,-17.38241 1.59601,-5.32707 4.61116,-7.89315 9.27441,-7.89315 7.90363,0 11.50556,18.13342 4.9117,24.72727 -3.98358,3.98359 -5.99694,4.08873 -10.49788,0.54829 z"
       id="path1394"
       inkscape:connector-curvature="0" />
    <path
       style="fill:#d16a18;stroke-width:1.33333337"
       d="M 0,113.33334 V 0 H 113.33334 226.66667 V 113.33334 226.66667 H 113.33334 0 Z m 71.579036,67.88105 c 6.378436,-3.08775 7.054068,-4.95815 3.087632,-8.54772 -2.398979,-2.17104 -2.900894,-2.20976 -5,-0.38573 -13.101874,11.385 -29.263309,-8.98082 -16.358605,-20.61427 4.661637,-4.20241 9.291215,-4.64485 14.76551,-1.41111 3.61764,2.13699 3.961363,2.12612 6.539056,-0.20665 3.669188,-3.32057 3.453984,-4.30768 -1.612628,-7.39685 -6.231281,-3.7993 -17.83724,-3.62876 -23.680226,0.34794 -5.958968,4.05564 -9.231222,8.75452 -10.183616,14.62343 -3.115826,19.2006 14.720392,32.17027 32.442877,23.59096 z M 111.0354,178.6887 c 3.27456,-3.66487 3.79441,-5.16682 3.15407,-9.11274 -1.00987,-6.22309 -2.84529,-7.85022 -13.00471,-11.52886 -7.192491,-2.60434 -8.518092,-3.57423 -8.518092,-6.23238 0,-4.04128 5.37958,-4.89352 11.361852,-1.79997 3.95072,2.043 4.31711,2.02765 6.04612,-0.25331 2.9188,-3.85056 2.26174,-5.75696 -2.69848,-7.82948 -7.477527,-3.1243 -15.819031,-2.50908 -20.607192,1.5199 -3.392184,2.85434 -4.1023,4.42972 -4.1023,9.10092 0,7.20033 3.317324,10.44485 13.754632,13.45278 8.11646,2.33908 10.32822,4.68148 7.56461,8.01142 -2.27679,2.74337 -7.766995,2.47884 -13.616033,-0.65607 l -4.923965,-2.63908 -2.056289,2.93576 c -2.963839,4.23147 -2.677327,4.84937 3.610378,7.78631 4.113223,1.92124 7.64703,2.50786 12.89065,2.13986 6.165459,-0.43268 7.798489,-1.14996 11.144749,-4.89506 z m 33.18859,0.162 C 152.68618,169.37986 146.75975,156 134.10256,156 128.21083,156 128,155.86182 128,152 v -4 h 9.33334 9.33333 v -4 -4 h -13.15211 -13.15209 l -0.8479,6.1861 c -2.24843,16.40404 -1.07664,18.52621 9.90242,17.93386 6.83773,-0.3689 9.73008,1.80543 9.01869,6.77982 -0.66025,4.61692 -6.15474,5.99136 -12.29778,3.07629 -4.9058,-2.32795 -5.0543,-2.31892 -7.85062,0.4774 -3.13249,3.13248 -2.65155,4.10812 3.71272,7.53164 2.74765,1.47803 6.26175,1.98576 11.22398,1.62169 6.08546,-0.44648 7.8191,-1.19606 11.00001,-4.7561 z m 36.61288,1.00752 c 5.19275,-4.85083 7.54408,-10.42703 7.54408,-17.89078 0,-13.54796 -7.37788,-21.95293 -19.27864,-21.96245 -10.94004,-0.009 -18.43787,9.05587 -18.43357,22.28552 0.004,13.2072 8.80525,22.43079 20.37477,21.35319 4.30172,-0.40067 7.48863,-1.63252 9.79336,-3.78548 z m -15.94081,-6.58266 c -4.27791,-3.36501 -5.77459,-10.41877 -3.68823,-17.38241 2.46621,-8.23149 8.58285,-10.22368 14.18611,-4.62041 2.69426,2.69425 3.27273,4.59034 3.27273,10.72726 0,6.13692 -0.57847,8.03302 -3.27273,10.72727 -3.98358,3.98359 -5.99694,4.08873 -10.49788,0.54829 z"
       id="path1392"
       inkscape:connector-curvature="0" />
    <path
       style="fill:#cd631a;stroke-width:1.33333337"
       d="M 0,113.33334 V 0 H 113.33334 226.66667 V 113.33334 226.66667 H 113.33334 0 Z m 73.038481,67.18593 5.939433,-3.48075 -3.174317,-3.17432 -3.174317,-3.17432 -5.314639,2.62918 c -9.69504,4.79614 -18.587367,-1.03054 -18.587367,-12.17936 0,-4.42103 0.792153,-6.12038 4.324065,-9.27615 4.937925,-4.41203 7.973838,-4.7676 14.453495,-1.6928 4.282282,2.03208 4.742328,2.01888 7.201506,-0.20665 3.57015,-3.23094 3.33509,-4.23823 -1.706339,-7.31204 -6.231281,-3.7993 -17.83724,-3.62876 -23.680226,0.34794 -5.958968,4.05564 -9.231222,8.75452 -10.183616,14.62343 -3.222502,19.85796 16.434026,33.13293 33.902322,22.89584 z m 34.975519,1.26037 c 6.57023,-3.88113 8.64364,-12.3706 4.31933,-17.68528 -1.28333,-1.57724 -6.23333,-4.27709 -11,-5.99965 -7.335191,-2.65077 -8.666662,-3.61557 -8.666662,-6.27999 0,-4.04128 5.37958,-4.89352 11.361852,-1.79997 3.95072,2.043 4.31711,2.02765 6.04612,-0.25331 2.9188,-3.85056 2.26174,-5.75696 -2.69848,-7.82948 -7.477527,-3.1243 -15.819031,-2.50908 -20.607192,1.5199 -3.397583,2.85888 -4.1023,4.42672 -4.1023,9.12669 0,7.12239 2.718123,9.79172 13.782361,13.53497 6.190251,2.09428 8.217641,3.40216 8.217641,5.30123 0,4.45332 -6.432387,5.55435 -13.210598,2.26124 -5.588323,-2.71503 -5.955431,-2.73751 -7.990091,-0.48923 -3.3275,3.67684 -2.580184,5.40715 3.53402,8.18248 6.999199,3.17706 16.031789,3.35346 21.013999,0.4104 z m 36.20999,-2.92894 C 152.72043,169.34152 146.75927,156 134.014,156 c -5.89472,0 -6.17093,-0.16688 -5.76923,-3.48566 0.40379,-3.33602 0.794,-3.49344 9.08857,-3.66667 L 146,148.66667 146.41782,144.33334 146.83563,140 h -13.24336 -13.24335 l -0.82645,5 c -0.45455,2.75 -0.83306,7.78582 -0.84113,11.19068 -0.0172,7.26191 1.55685,8.4245 10.73565,7.92928 6.83773,-0.3689 9.73008,1.80543 9.01869,6.77982 -0.66025,4.61692 -6.15474,5.99136 -12.29778,3.07629 -4.88144,-2.31639 -5.06534,-2.30788 -7.73095,0.35773 -1.55522,1.55522 -2.30506,3.41904 -1.74203,4.33004 1.98681,3.21472 9.31322,5.38102 16.55906,4.89626 6.1177,-0.4093 7.80225,-1.1305 11.00001,-4.7094 z m 37.9464,-0.57192 c 5.74909,-6.27335 7.85465,-14.12231 5.88588,-21.94103 C 185.15362,144.8103 179.4944,140 168.83519,140 c -10.66048,0 -18.17069,9.21515 -18.16645,22.29051 0.003,8.0418 3.33789,14.76212 9.33126,18.80173 3.79706,2.55928 5.89356,3.03102 11.25063,2.53156 5.43732,-0.50694 7.33908,-1.43782 10.91976,-5.34502 z m -17.24773,-4.9823 c -7.10914,-5.59204 -5.48923,-22.7662 2.33253,-24.72934 4.37221,-1.09735 9.73933,2.28536 10.88811,6.86241 1.52977,6.09511 -0.29467,15.59531 -3.4922,18.18451 -3.7793,3.06029 -5.50583,3.00393 -9.72844,-0.31758 z"
       id="path1390"
       inkscape:connector-curvature="0" />
    <path
       style="fill:#c7581d;stroke-width:1.33333337"
       d="M 0,113.33334 V 0 H 113.33334 226.66667 V 113.33334 226.66667 H 113.33334 0 Z m 71.962653,68.01905 c 6.828631,-3.48371 7.222659,-4.40031 3.425212,-7.96783 -3.001193,-2.81946 -3.383619,-2.87208 -6.25558,-0.86048 -3.514635,2.46175 -10.732428,2.8072 -14.666151,0.70194 -3.66412,-1.96098 -6.61346,-9.48938 -5.634728,-14.38304 1.765045,-8.82523 13.866203,-13.5149 20.164882,-7.81467 2.423888,2.19359 2.690206,2.14395 5.703193,-1.06324 l 3.160575,-3.36427 -2.923088,-2.92309 c -2.295354,-2.29535 -4.857327,-3.02888 -11.930027,-3.41575 -7.735459,-0.4231 -9.648412,-0.0529 -13.55101,2.6227 -8.743321,5.99429 -12.151828,14.10086 -10.231908,24.33492 1.075272,5.73169 6.556135,12.51494 12.043208,14.90496 5.942914,2.58857 14.752115,2.2599 20.695422,-0.77215 z M 107.80663,182.1 c 4.01668,-2.0771 6.86004,-7.08752 6.86004,-12.08838 0,-5.21846 -5.24764,-9.89243 -14,-12.46952 -6.323373,-1.8619 -8.089461,-2.97018 -8.426851,-5.28812 -0.713786,-4.90388 4.327573,-5.19755 15.093511,-0.87923 0.73334,0.29415 2.4071,-0.9392 3.71948,-2.74079 2.36884,-3.25185 2.35434,-3.29498 -2,-5.9498 -6.51815,-3.97406 -17.006046,-3.67328 -22.125611,0.63456 -4.479027,3.76886 -5.897322,8.74619 -4.023724,14.12079 1.285529,3.68768 5.18981,6.12188 14.656537,9.13791 2.691338,0.85745 5.668688,2.49322 6.616338,3.63506 1.43864,1.73347 1.30417,2.38235 -0.81485,3.9318 -3.33826,2.441 -5.568553,2.30852 -12.25642,-0.728 -5.285025,-2.39957 -5.666267,-2.40948 -7.666667,-0.19905 -3.29885,3.64519 -2.539836,5.38248 3.561588,8.15201 6.729095,3.05446 15.703579,3.36964 20.806629,0.73076 z m 35.66004,-2.63333 C 147.28232,175.65102 148,173.98112 148,168.91852 148,160.86408 142.6902,156 133.8977,156 128.52499,156 128,155.70871 128,152.72759 c 0,-3.11219 0.44066,-3.29172 9,-3.66667 l 9,-0.39425 0.41782,-4.33333 L 146.83563,140 H 133.58448 120.33334 L 119.5,144.16667 c -0.45833,2.29167 -0.83333,7.32748 -0.83333,11.19068 0,8.17832 1.33973,9.27033 10.75032,8.76261 6.80887,-0.36734 9.73683,1.80856 9.01869,6.70222 -0.65649,4.47365 -6.4903,5.90973 -12.47349,3.07052 -4.66755,-2.2149 -4.91361,-2.20054 -7.55524,0.4411 -1.55522,1.55522 -2.30506,3.41904 -1.74203,4.33004 1.70836,2.76419 9.08161,5.22974 15.80175,5.28398 5.611,0.0453 7.06651,-0.54766 11,-4.48115 z m 37.70849,-0.14905 c 8.52392,-7.70084 10.13524,-20.62442 3.8672,-31.0166 -5.39265,-8.94083 -18.61993,-11.28912 -26.45469,-4.6966 -9.78028,8.22956 -10.85195,25.48822 -2.16552,34.87473 3.78176,4.08656 6.96993,5.3328 13.90735,5.43633 4.66633,0.0696 6.57485,-0.73945 10.84566,-4.59786 z m -15.41654,-5.30314 c -6.51114,-4.56058 -7.04239,-17.75766 -0.9454,-23.48548 6.20436,-5.82869 13.79156,0.31612 13.8338,11.20388 0.0201,5.1966 -3.11382,12.93379 -5.23887,12.93379 -0.65453,0 -1.99365,0.30837 -2.97585,0.68528 -0.98219,0.37691 -3.08535,-0.22496 -4.67368,-1.33747 z"
       id="path1388"
       inkscape:connector-curvature="0" />
    <path
       style="fill:#c14c20;stroke-width:1.33333337"
       d="M 0,113.33334 V 0 H 113.33334 226.66667 V 113.33334 226.66667 H 113.33334 0 Z m 74.514025,66.77536 4.400575,-3.1335 -3.323554,-3.32354 c -3.152868,-3.15287 -3.482609,-3.21215 -6.420641,-1.15427 -3.901425,2.73267 -11.679529,2.79793 -15.488578,0.13 -6.327242,-4.43177 -6.172121,-16.5792 0.280048,-21.93039 3.251997,-2.69709 11.898609,-2.50653 15.034413,0.33134 2.4234,2.19314 2.688746,2.14549 5.659126,-1.01634 2.991338,-3.18413 3.022056,-3.42173 0.764864,-5.9159 -1.293402,-1.42919 -5.206408,-3.21078 -8.695566,-3.95906 -15.229219,-3.26612 -28.058045,6.91458 -28.058045,22.26624 0,7.63367 3.543527,13.82147 10.698396,18.6818 6.207002,4.21644 18.528091,3.73808 25.148962,-0.97638 z M 107.80663,182.1 c 4.01668,-2.0771 6.86004,-7.08752 6.86004,-12.08838 0,-5.21846 -5.24764,-9.89243 -14,-12.46952 -6.262298,-1.84391 -8.091209,-2.98103 -8.419894,-5.23504 -0.580965,-3.98406 4.608601,-5.09964 11.101914,-2.38658 2.78341,1.16299 5.12502,1.95666 5.20357,1.7637 0.0785,-0.19296 1.25156,-1.67006 2.60668,-3.28243 2.43843,-2.90132 2.41765,-2.95975 -2.01421,-5.66168 -5.02811,-3.06544 -14.992029,-3.66373 -20.351069,-1.22199 -5.129249,2.33704 -7.997548,9.48075 -6.10686,15.20959 1.68158,5.09524 3.743527,6.55396 13.258191,9.37952 8.244638,2.44839 10.990338,5.42384 7.416508,8.03709 -3.421375,2.50178 -5.847351,2.34022 -12.005787,-0.79953 l -5.208132,-2.65527 -3.032696,2.84908 c -3.593148,3.37559 -3.1916,4.31703 3.304847,7.74832 5.861023,3.09567 16.211908,3.48922 21.386898,0.81312 z m 32.61436,0.41062 c 5.14156,-2.62942 7.51803,-6.82518 7.54936,-13.3288 0.0469,-9.72059 -5.77995,-14.30047 -16.97035,-13.33872 -2.39077,0.20548 -3,-0.42934 -3,-3.12596 0,-3.30058 0.22955,-3.3838 9.33334,-3.3838 h 9.33333 V 144.66667 140 h -13.17783 c -15.18345,0 -14.77154,-0.39484 -14.80396,14.19068 -0.0211,9.4692 1.04134,10.45212 10.73211,9.92928 4.20816,-0.22704 6.61757,0.31511 7.81556,1.7586 2.26169,2.72518 0.75576,8.7247 -2.25795,8.99547 -4.74901,0.42671 -9.04002,-0.46631 -11.07738,-2.30531 -1.83891,-1.65988 -2.46637,-1.51105 -5,1.18588 -3.77647,4.01986 -3.69195,4.46671 1.43612,7.59335 4.85702,2.96139 15.37952,3.57043 20.08765,1.16267 z m 38.94635,-1.1983 c 12.7451,-7.8769 12.43297,-31.5512 -0.51568,-39.11362 -9.04152,-5.28054 -18.58012,-2.58348 -25.18499,7.12108 -3.55135,5.21801 -4.15436,17.92733 -1.12668,23.74644 2.06513,3.96914 7.01728,8.85549 10.12668,9.99214 4.53019,1.65604 12.5532,0.81724 16.70067,-1.74604 z m -12.47631,-6.82358 c -7.16301,-2.64979 -8.57024,-17.86042 -2.20555,-23.83975 8.70822,-8.18093 18.32988,7.74067 12.03459,19.91443 -2.20528,4.26452 -5.43036,5.55249 -9.82904,3.92532 z"
       id="path1386"
       inkscape:connector-curvature="0" />
    <path
       style="fill:#bd4323;stroke-width:1.33333337"
       d="M 0,113.33334 V 0 H 113.33334 226.66667 V 113.33334 226.66667 H 113.33334 0 Z m 74.514025,66.77536 4.400575,-3.1335 -3.323554,-3.32354 c -3.152868,-3.15287 -3.482609,-3.21215 -6.420641,-1.15427 -4.753057,3.32917 -12.658344,2.80255 -16.564344,-1.10345 -6.553176,-6.55318 -3.158812,-20.46152 5.525631,-22.64118 2.310704,-0.57996 5.336697,0.0249 8.869862,1.77298 l 5.362662,2.65324 2.4402,-2.92283 c 3.332373,-3.99144 3.136305,-5.33285 -1.137748,-7.78401 -15.896346,-9.1165 -34.981787,1.6078 -34.995017,19.66402 -0.0059,7.91963 3.436327,14.01915 10.693412,18.94892 6.207002,4.21644 18.528091,3.73808 25.148962,-0.97638 z m 33.609475,1.82744 c 2.19508,-1.13512 4.56529,-3.57418 5.26712,-5.42014 3.50968,-9.23117 -0.36728,-15.07062 -12.73921,-19.18774 -6.599323,-2.19611 -8.651409,-3.47972 -8.651409,-5.41156 0,-3.61234 5.303178,-4.52219 11.432079,-1.96136 5.0087,2.09276 5.20599,2.06898 7.49305,-0.90299 1.2919,-1.67879 2.36225,-3.39121 2.37856,-3.8054 C 113.37605,143.40902 103.36064,140 97.888552,140 c -8.547924,0 -13.459755,2.9261 -15.316879,9.12462 -2.250097,7.51016 0.732002,12.61301 9.066602,15.51444 13.618215,4.74074 16.595205,8.04234 9.501195,10.53717 -2.715682,0.95505 -4.850469,0.58575 -9.27869,-1.60516 l -5.751491,-2.84561 -3.082124,2.8955 c -2.486036,2.33552 -2.754473,3.2177 -1.387977,4.56136 5.875823,5.77771 18.979082,7.63492 26.484312,3.75382 z m 32.29749,0.57448 c 5.21133,-2.66511 7.51803,-6.8127 7.54936,-13.57428 0.0239,-5.15499 -0.62595,-7.00459 -3.34704,-9.52642 -3.60781,-3.34361 -10.86604,-5.33389 -14.44432,-3.96077 -1.67304,0.642 -2.17899,0.029 -2.17899,-2.63983 0,-3.4147 0.16453,-3.47598 9.33334,-3.47598 h 9.33333 v -4.71331 -4.71332 L 133,140.2867 l -13.66666,0.37997 -0.39386,10.5798 c -0.45953,12.34391 0.40588,13.40957 10.89508,13.41613 7.31051,0.004 10.6431,2.83499 8.09475,6.87496 -2.44628,3.87816 -6.63254,4.49623 -11.98181,1.76902 -4.93948,-2.5183 -4.95259,-2.51756 -7.40351,0.41866 -3.33627,3.99687 -3.19911,4.58119 1.78935,7.62271 4.85702,2.96139 15.37952,3.57043 20.08765,1.16267 z m 38.46539,-0.84395 c 6.4951,-3.82276 9.77197,-10.45523 9.71661,-19.66667 -0.0816,-13.57361 -7.40885,-22.44444 -18.53899,-22.44444 -11.62805,0 -19.39733,8.95547 -19.39733,22.35886 0,8.65904 2.152,13.62688 8.05441,18.59342 5.02352,4.22703 14.06904,4.74683 20.1653,1.15883 z m -15.39143,-10 c -4.67775,-7.38649 -3.73748,-17.03792 2.08327,-21.38373 4.33386,-3.23571 8.4243,-2.1015 11.10308,3.07868 3.40768,6.58972 2.0754,17.1978 -2.54756,20.28464 -3.10119,2.0707 -8.73802,1.02185 -10.63879,-1.97959 z"
       id="path1384"
       inkscape:connector-curvature="0" />
    <path
       style="fill:#b73826;stroke-width:1.33333337"
       d="M 0,113.33334 V 0 H 113.33334 226.66667 V 113.33334 226.66667 H 113.33334 0 Z m 73.842296,67.1821 5.127985,-3.48456 -3.351395,-3.35138 c -3.180589,-3.18059 -3.509237,-3.24084 -6.448481,-1.18211 -4.753057,3.32917 -12.658344,2.80255 -16.564344,-1.10345 -4.45289,-4.45288 -4.590624,-13.80634 -0.272727,-18.52067 4.214741,-4.60171 8.910056,-5.31143 14.908094,-2.25345 l 5.019377,2.55902 3.129205,-3.58942 L 78.519217,146 75.592942,143.6748 C 65.094838,135.33308 48.220655,138.69739 41.615881,150.449 32.886131,165.9815 43.415029,184 61.221,184 c 5.882576,0 8.595601,-0.74902 12.621296,-3.48456 z m 34.184394,1.47076 c 4.63431,-2.39649 6.63998,-5.73488 6.63998,-11.05206 0,-6.14679 -4.38098,-10.3998 -14.01526,-13.60588 -6.599323,-2.19611 -8.651409,-3.47972 -8.651409,-5.41156 0,-3.72008 5.503196,-4.59391 11.377189,-1.80652 4.90641,2.32825 4.95166,2.32285 7.41669,-0.88382 3.31883,-4.31736 3.2422,-4.58904 -1.99538,-7.07444 -6.10242,-2.89578 -17.949611,-2.78025 -21.642445,0.21107 -4.351302,3.52468 -6.164826,8.06205 -5.224875,13.07241 1.001811,5.34012 4.337699,7.95326 13.623803,10.6721 7.734457,2.26453 10.208827,4.37193 8.458507,7.20401 -1.5777,2.55277 -9.881451,2.18519 -14.174061,-0.62744 -3.280169,-2.14925 -3.561236,-2.11728 -6.615917,0.75244 -2.613807,2.45555 -2.892181,3.35615 -1.540711,4.98457 4.446576,5.3578 19.054379,7.33467 26.343889,3.56512 z m 33.33334,0 c 2.14184,-1.10758 4.51204,-3.16814 5.26712,-4.57901 2.04951,-3.82955 1.65707,-13.74141 -0.67596,-17.07227 -2.20991,-3.15508 -11.46257,-6.28138 -15.48068,-5.23062 C 128.57084,155.60107 128,155.009 128,152.54184 c 0,-3.08354 0.3635,-3.2085 9.33334,-3.2085 h 9.33333 v -4.71331 -4.71332 L 133,140.2867 l -13.66666,0.37997 -0.39494,10.63952 c -0.46236,12.45627 0.95043,14.50285 9.11072,13.19797 8.21503,-1.31364 13.69256,3.8875 9.01755,8.56251 -2.26001,2.26001 -9.25559,1.98597 -12.80725,-0.50171 -2.80912,-1.96758 -3.16556,-1.90377 -5.58565,1 -3.47699,4.17192 -3.35953,4.72279 1.65957,7.78299 5.25108,3.20165 15.4698,3.51183 21.02669,0.63825 z m 37.24413,0.0461 c 12.30736,-6.36438 13.91754,-29.08 2.72867,-38.4948 -8.94737,-7.52874 -22.66171,-4.66711 -28.02605,5.84789 -5.71264,11.19769 -2.61066,26.70339 6.46908,32.33653 4.43994,2.75459 13.80325,2.90894 18.8283,0.31038 z m -14.57278,-9.32786 c -0.89567,-1.07921 -2.11262,-4.10876 -2.70432,-6.73233 -3.09684,-13.73097 9.4472,-24.03347 15.35424,-12.61052 3.40768,6.58972 2.0754,17.1978 -2.54756,20.28464 -2.49914,1.66871 -8.39175,1.11937 -10.10236,-0.94179 z"
       id="path1382"
       inkscape:connector-curvature="0" />
    <path
       style="fill:#b12b2a;stroke-width:1.33333337"
       d="M 0,113.33334 V 0 H 113.33334 226.66667 V 113.33334 226.66667 H 113.33334 0 Z m 71.829992,68.75458 c 6.426512,-3.32328 7.225046,-5.25822 3.582318,-8.68038 -3.025386,-2.84222 -3.406885,-2.89588 -6.280025,-0.88346 -4.89272,3.427 -12.673686,2.77482 -16.529283,-1.38544 -4.578463,-4.94025 -4.576975,-13.95254 0.0031,-18.53257 3.908878,-3.90888 11.812225,-4.43196 16.57366,-1.09692 2.978068,2.08592 3.234809,2.01707 6.214515,-1.66667 L 78.502346,146 75.584508,143.6748 c -7.372798,-5.8753 -19.029275,-6.03128 -27.709458,-0.3708 -12.8708,8.39327 -12.144044,30.04119 1.269657,37.81934 5.781914,3.35272 17.133718,3.83541 22.685285,0.96458 z m 38.939238,-1.98536 c 3.00465,-3.00464 3.89744,-5.11548 3.89744,-9.2148 0,-6.698 -4.7474,-11.0863 -15.317845,-14.15922 -5.589581,-1.62494 -7.348824,-2.74431 -7.348824,-4.67594 0,-3.6079 4.316248,-4.51334 10.064959,-2.11138 6.41347,2.67972 6.57027,2.65616 9.21836,-1.38534 2.13526,-3.25882 2.12558,-3.54104 -0.17999,-5.24542 -1.34016,-0.99071 -5.01446,-2.4565 -8.16511,-3.2573 -12.256963,-3.11536 -22.618761,4.03378 -21.046688,14.52118 0.912952,6.09036 2.912809,7.83149 12.962013,11.28509 6.618685,2.27465 8.573305,3.56093 8.905855,5.86075 0.38367,2.65324 -0.1508,2.94649 -5.369989,2.94649 -3.187832,0 -7.172595,-0.96416 -8.855027,-2.14259 -2.873933,-2.01297 -3.254811,-1.9586 -6.296675,0.8991 -1.780738,1.6729 -3.237708,3.47437 -3.237708,4.00324 0,2.52944 11.748071,6.57153 19.102564,6.57253 6.809985,9.2e-4 8.250435,-0.48015 11.666665,-3.89639 z m 31.48228,1.29515 c 8.80979,-5.37169 8.26999,-19.74859 -0.91817,-24.45452 -2.58899,-1.326 -6.59595,-2.18723 -9,-1.9344 -3.76456,0.39592 -4.33334,0.0533 -4.33334,-2.60985 0,-2.90662 0.48404,-3.0656 9.33334,-3.0656 h 9.33333 v -4.71331 -4.71332 L 133,140.2867 l -13.66666,0.37997 -0.39494,10.63952 c -0.46236,12.45627 0.95043,14.50285 9.11072,13.19797 8.21503,-1.31364 13.69256,3.8875 9.01755,8.56251 -2.26001,2.26001 -9.25559,1.98597 -12.80725,-0.50171 -2.80912,-1.96758 -3.16556,-1.90377 -5.58565,1 -3.47699,4.17192 -3.35953,4.72279 1.65957,7.78299 5.75516,3.50899 16.206,3.53272 21.91817,0.0497 z m 37.49268,-0.0969 c 15.58971,-9.50479 10.58533,-38.74187 -7.20244,-42.07887 -6.75809,-1.26783 -16.29367,3.91721 -19.75767,10.7434 -5.37954,10.601 -2.30796,25.75291 6.34427,31.29587 5.55991,3.56189 14.80948,3.57965 20.61584,0.0396 z m -16.33525,-9.59748 c -2.35843,-3.36714 -2.7901,-14.54358 -0.71171,-18.42708 3.51588,-6.5695 11.70511,-5.68562 14.71817,1.58854 2.00811,4.84802 0.86887,13.87447 -2.17572,17.23871 -3.18142,3.51543 -9.23148,3.3108 -11.83074,-0.40017 z"
       id="path1380"
       inkscape:connector-curvature="0" />
    <path
       style="fill:#ad232c;stroke-width:1.33333337"
       d="M 0,113.33334 V 0 H 113.33334 226.66667 V 113.33334 226.66667 H 113.33334 0 Z m 72.776326,68.30624 c 5.508036,-2.96396 6.1296,-4.94996 2.589944,-8.2753 -3.105212,-2.9172 -3.432401,-2.96097 -6.603106,-0.88345 -3.900206,2.55552 -11.186196,2.79993 -14.212039,0.47677 -6.067022,-4.65812 -7.076468,-15.22013 -1.945064,-20.35153 3.908878,-3.90888 11.812225,-4.43196 16.57366,-1.09692 2.978588,2.08628 3.232447,2.01773 6.169761,-1.66601 3.657204,-4.58658 3.307328,-5.37042 -3.847309,-8.61935 -6.971009,-3.16556 -13.355357,-3.17076 -20.300747,-0.0165 -18.797595,8.53684 -16.153365,38.41362 3.756167,42.4404 6.102241,1.2342 13.301131,0.42293 17.818733,-2.00807 z m 38.890344,-2.31079 c 1.99102,-2.30792 3,-5.20636 3,-8.61795 0,-6.50573 -4.86021,-10.94218 -15.317845,-13.9823 -5.501468,-1.59932 -7.348824,-2.75826 -7.348824,-4.61027 0,-3.44547 3.903963,-4.10695 10.693409,-1.81189 5.58203,1.88692 5.84621,1.84884 8.17454,-1.17822 3.12629,-4.06449 3.10661,-4.17456 -1.20128,-6.71834 -9.41596,-5.56008 -21.255941,-4.00026 -25.764877,3.3943 -5.627357,9.22876 -2.336785,15.37072 10.764875,20.09299 6.547432,2.35992 8.770852,3.81404 9.092732,5.94665 0.37845,2.5074 -0.22173,2.82291 -5.369989,2.82291 -3.187832,0 -7.172595,-0.96416 -8.855027,-2.14259 -2.873933,-2.01297 -3.254811,-1.9586 -6.296675,0.8991 -4.103148,3.8547 -4.068737,4.17764 0.748355,7.02316 9.286628,5.48574 22.442196,4.95461 27.680606,-1.11755 z m 32.38309,1.29285 c 7.61926,-6.89533 5.63863,-20.27138 -3.57145,-24.1196 -2.72305,-1.13776 -6.64464,-1.82009 -8.71465,-1.51628 -3.20924,0.47103 -3.76366,0.0954 -3.76366,-2.55001 0,-2.9522 0.45193,-3.10241 9.33334,-3.10241 h 9.33333 V 144.66667 140 H 132.7682 118.86973 l -0.43487,10.85855 c -0.39596,9.88723 -0.17913,11.02573 2.42396,12.72751 1.73899,1.13686 4.21981,1.52737 6.33333,0.9969 7.57363,-1.90085 14.07189,3.3475 10.08808,8.1477 -2.15532,2.597 -9.28025,2.4543 -13.16059,-0.26359 -2.99533,-2.09801 -3.25399,-2.05183 -5.60036,1 -3.06209,3.98273 -3.06735,4.29029 -0.11912,6.95841 5.4478,4.9302 20.2931,5.04372 25.6496,0.19616 z m 35.70762,0.67115 c 9.97908,-6.08404 12.51884,-24.10135 4.82017,-34.1948 -3.67325,-4.81589 -10.24828,-8.43132 -15.33321,-8.43132 -5.10486,0 -12.07923,4.31139 -15.61332,9.65175 -6.90174,10.42922 -3.62492,28.33617 6.15756,33.64949 5.21809,2.83419 14.74086,2.51224 19.9688,-0.67512 z m -16.34844,-9.58947 c -2.65386,-3.78892 -2.7248,-15.51644 -0.1164,-19.24046 3.00392,-4.28871 6.95792,-4.69295 11.09505,-1.13434 3.1104,2.67546 3.6124,4.12292 3.6124,10.41606 0,5.31618 -0.69248,8.07397 -2.53999,10.11544 -3.38378,3.73904 -9.37697,3.66112 -12.05108,-0.1567 z"
       id="path1378"
       inkscape:connector-curvature="0" />
    <path
       style="fill:#a31132;stroke-width:1.33333337"
       d="M 0,113.33334 V 0 H 113.33334 226.66667 V 113.33334 226.66667 H 113.33334 0 Z m 72.051038,68.64028 c 1.912084,-0.98879 4.283435,-2.77006 5.26967,-3.9584 1.53274,-1.84684 1.378264,-2.57551 -1.063698,-5.01747 -2.769572,-2.76957 -3.001821,-2.78772 -7.602165,-0.59396 -6.864805,3.2736 -10.948713,2.8408 -15.424075,-1.63456 -8.086509,-8.08651 -3.264975,-21.43589 7.742224,-21.43589 2.805178,0 6.529658,1.00114 8.276622,2.22476 3.067636,2.14866 3.280333,2.0943 6.217325,-1.58904 3.632939,-4.55614 3.211051,-5.48672 -3.964768,-8.74527 -21.539432,-9.78111 -42.064391,12.79915 -29.970452,32.97159 5.9638,9.94749 19.602568,13.4235 30.519317,7.77824 z m 32.221652,1.97302 c 6.49513,-1.80392 10.39398,-6.87665 10.39398,-13.52345 0,-6.6528 -4.32942,-10.91107 -13.47703,-13.25553 -7.065349,-1.81079 -10.011657,-4.09224 -8.481712,-6.56775 0.937605,-1.51708 7.808352,-1.15709 13.512182,0.70796 2.24452,0.73393 3.41459,0.13836 5.25926,-2.67695 2.28896,-3.4934 2.28266,-3.68656 -0.17891,-5.4865 -3.9964,-2.92224 -12.606033,-4.77974 -17.71338,-3.82159 -6.6422,1.24608 -12.253745,7.27581 -12.253745,13.16692 0,6.74951 4.402829,11.14232 14,13.96816 6.316625,1.85991 8.089655,2.97139 8.426065,5.28216 0.37004,2.54175 -0.19384,2.9266 -4.288095,2.9266 -2.59279,0 -6.808434,-0.99869 -9.368096,-2.21931 -4.55804,-2.17357 -4.709154,-2.15297 -7.33421,1 -1.474154,1.77062 -2.700242,3.53995 -2.724639,3.93183 -0.07632,1.22595 8.244644,5.67669 12.529833,6.70199 5.820832,1.39273 6.215804,1.38818 11.698497,-0.13454 z m 38.11334,-2.11053 c 4.88688,-3.14827 7.49999,-9.9526 6.09829,-15.87953 -1.58993,-6.72294 -6.83632,-10.54582 -14.53265,-10.58951 -5.26312,-0.0299 -5.94366,-0.37701 -5.94742,-3.03373 -0.004,-2.8258 0.5377,-3 9.32909,-3 h 9.33333 V 144.66667 140 H 132.8124 118.95814 l -0.62349,10.33334 c -0.55132,9.13733 -0.31242,10.60921 2.06403,12.7169 2.07493,1.84028 3.95841,2.19299 8.26328,1.54744 5.70412,-0.85538 10.00471,1.39315 10.00471,5.2309 0,4.72714 -9.15932,6.60117 -14.07849,2.88049 -3.56245,-2.69449 -4.0259,-2.57704 -7.15151,1.81248 l -2.74491,3.85487 3.62623,2.376 c 7.30165,4.78422 17.60385,5.24809 24.06804,1.08369 z M 180,181.47203 c 1.83334,-1.31417 4.70766,-4.733 6.38739,-7.59739 3.94959,-6.7351 3.65627,-19.81905 -0.57225,-25.52694 -5.01335,-6.76727 -11.13924,-9.99059 -17.63412,-9.27871 -11.33559,1.24243 -18.16742,9.8656 -18.16742,22.93101 0,10.31971 3.31476,16.27491 11.35024,20.39155 6.72455,3.44505 12.97783,3.13651 18.63616,-0.91952 z m -14.13373,-7.82577 c -4.66285,-3.11348 -6.15431,-16.0714 -2.45733,-21.34958 2.6741,-3.81781 8.66729,-3.89573 12.05108,-0.15669 C 177.28398,154.15543 178,156.935 178,162 c 0,5.065 -0.71602,7.84458 -2.53998,9.86002 -2.548,2.8155 -6.8521,3.61688 -9.59375,1.78624 z"
       id="path1376"
       inkscape:connector-curvature="0" />
    <path
       style="fill:#a20e33;stroke-width:1.33333337"
       d="M 0,113.33334 V 0 H 113.33334 226.66667 V 113.33334 226.66667 H 113.33334 0 Z m 63.000001,73.78362 c -0.916667,-0.36988 -2.416667,-0.36988 -3.333333,0 -0.916667,0.36988 -0.166667,0.67252 1.666666,0.67252 1.833334,0 2.583334,-0.30264 1.666667,-0.67252 z m 37.333329,0 c -0.916662,-0.36988 -2.416662,-0.36988 -3.333329,0 -0.916666,0.36988 -0.166666,0.67252 1.666667,0.67252 1.833332,0 2.583332,-0.30264 1.666662,-0.67252 z m 33.33334,0 c -0.91667,-0.36988 -2.41667,-0.36988 -3.33333,0 -0.91667,0.36988 -0.16667,0.67252 1.66666,0.67252 1.83334,0 2.58334,-0.30264 1.66667,-0.67252 z m 37.33333,0 c -0.91666,-0.36988 -2.41666,-0.36988 -3.33333,0 -0.91667,0.36988 -0.16667,0.67252 1.66667,0.67252 1.83333,0 2.58333,-0.30264 1.66666,-0.67252 z M 55.63889,185.86111 c -0.443056,-0.44305 -1.593056,-0.49041 -2.555556,-0.1052 -1.063644,0.42563 -0.747701,0.74157 0.805556,0.80555 1.405555,0.0579 2.193055,-0.25724 1.75,-0.7003 z m 13.333334,0 c -0.443056,-0.44305 -1.593056,-0.49041 -2.555556,-0.1052 -1.063644,0.42563 -0.747702,0.74157 0.805556,0.80555 1.405554,0.0579 2.193054,-0.25724 1.75,-0.7003 z m 24,0 c -0.443056,-0.44305 -1.593056,-0.49041 -2.555556,-0.1052 -1.063644,0.42563 -0.747701,0.74157 0.805556,0.80555 1.405555,0.0579 2.193055,-0.25724 1.75,-0.7003 z m 33.333336,0 c -0.44306,-0.44305 -1.59306,-0.49041 -2.55556,-0.1052 -1.06364,0.42563 -0.7477,0.74157 0.80556,0.80555 1.40555,0.0579 2.19305,-0.25724 1.75,-0.7003 z M 138,185.33334 135.33334,184.18743 138,183.89063 c 1.46667,-0.16324 3.3764,-0.36299 4.24384,-0.44389 0.86744,-0.0809 3.11744,-1.5941 5,-3.36266 l 3.42283,-3.21558 3.3188,3.11785 c 1.82535,1.71483 4.67535,3.27267 6.33333,3.46189 1.658,0.18923 5.94415,1.01116 9.52479,1.82654 3.58065,0.81537 6.83065,1.1621 7.22223,0.77052 0.39158,-0.39158 -0.43804,-0.74999 -1.84359,-0.79648 -2.15841,-0.0713 -2.07021,-0.27899 0.56757,-1.33592 1.71774,-0.68827 3.57266,-0.97359 4.12207,-0.63403 1.48136,0.91553 9.04139,-7.37124 10.67303,-11.699 2.23932,-5.93963 1.669,-15.5468 -1.2852,-21.64936 -4.0553,-8.37711 -6.67344,-10.12453 -16.22516,-10.82908 -7.19935,-0.53103 -9.07864,-0.17409 -13.07454,2.48329 -5.49222,3.6525 -10.62326,13.03523 -10.77193,19.6978 -0.0579,2.59462 -0.43425,3.81748 -0.83637,2.71748 -0.40211,-1.1 -2.00475,-3.4957 -3.5614,-5.3238 L 142,155.35242 l 3,2.53044 c 1.65,1.39174 3,1.90165 3,1.13312 0,-2.50486 -4.20376,-3.71356 -14.33333,-4.12124 C 128.96491,154.70551 128,154.21259 128,152 c 0,-2.41269 0.88889,-2.66666 9.33334,-2.66666 h 9.33333 V 144.66667 140 h -13.80238 -13.80237 l -0.83839,10.87195 c -0.98445,12.76607 0.37383,14.92477 8.78165,13.95671 6.58202,-0.75786 9.94205,0.21752 10.6972,3.10524 1.64928,6.30685 -6.33866,8.99824 -13.25547,4.46617 -3.3785,-2.21368 -3.53647,-2.17685 -6.76595,1.57765 -3.18404,3.70167 -3.21472,3.91286 -0.82716,5.69404 1.36375,1.01739 2.31467,2.45204 2.11317,3.18812 -0.20151,0.73608 0.0985,1.06318 0.66666,0.72688 0.56817,-0.3363 4.63304,0.16882 9.03304,1.12248 9.37533,2.03203 13.20584,2.28818 9.33333,0.6241 z m 7.0528,-5.47547 c 1.67904,-1.91152 3.4168,-5.71852 3.86168,-8.46001 l 0.80888,-4.98452 1.69134,4.91974 c 0.93022,2.70587 2.79246,6.24779 4.13832,7.87095 1.34584,1.62316 0.49698,0.86631 -1.88635,-1.68189 -2.66101,-2.8451 -4.33333,-3.86522 -4.33333,-2.64336 0,1.09434 -1.65,3.4443 -3.66667,5.22214 L 142,183.33334 Z m 37.86238,-0.52937 c 4.59537,-5.12564 6.41816,-10.04702 6.41816,-17.3285 0,-7.58377 -1.85632,-12.28192 -7.08178,-17.92324 -3.60664,-3.89366 -3.75096,-4.27684 -0.95136,-2.52604 5.01046,3.13343 9.36647,12.45107 9.36647,20.03515 0,8.00389 -2.45819,14.04185 -7.49483,18.40929 l -3.8385,3.32848 z m -18.15127,-6.75507 c -2.84776,-2.84776 -3.8998,-7.69281 -3.04852,-14.03959 0.90548,-6.75085 2.96905,-9.2005 7.75047,-9.2005 4.9397,0 8.53414,5.335 8.53414,12.66666 0,10.16348 -7.58605,16.22347 -13.23609,10.57343 z m 9.85585,-1.81911 c 0.75914,-1.41845 1.33287,-3.36845 1.27498,-4.33333 -0.0579,-0.96488 -0.7079,-0.10427 -1.44444,1.91235 -1.61258,4.4152 -6.94686,5.05488 -9.07006,1.08765 -2.04937,-3.82929 -1.67142,-12.41191 0.69536,-15.79097 1.21436,-1.73374 1.4773,-2.96335 0.63367,-2.96335 -3.93753,0 -5.41333,14.783 -1.967,19.70332 2.57163,3.67151 8.00511,3.88292 9.87749,0.38433 z m 2.29106,-9.67098 c -0.42563,-1.06364 -0.74158,-0.74771 -0.80555,0.80556 -0.0579,1.40554 0.25723,2.19305 0.70029,1.75 0.44306,-0.44307 0.49042,-1.59307 0.1052,-2.55556 z M 175.57748,155.75 c -0.42562,-1.06364 -0.74157,-0.7477 -0.80554,0.80556 -0.0579,1.40555 0.25722,2.19306 0.70029,1.75 0.44305,-0.44306 0.49041,-1.59306 0.1052,-2.55556 z M 174,152 c -0.45322,-0.73333 -1.53864,-1.32414 -2.41202,-1.31292 -0.95415,0.012 -0.7897,0.53631 0.41202,1.31292 2.5615,1.65538 3.02307,1.65538 2,0 z M 71.333334,183.38244 c 1.466667,-0.13306 3.92475,-0.9204 5.462406,-1.74974 1.87528,-1.01143 3.237436,-1.06619 4.137316,-0.16631 3.489841,3.48984 29.162094,3.80876 32.210204,0.40013 0.47121,-0.52693 -0.32914,-0.52916 -1.77856,-0.005 -2.43145,0.87941 -2.40567,0.70871 0.33334,-2.20683 4.10941,-4.37426 4.09343,-13.19662 -0.0314,-17.32142 -1.65,-1.65 -3,-3.55 -3,-4.22223 0,-0.67221 -0.9,-1.46789 -2,-1.76817 -1.77777,-0.4853 -1.77777,-0.37454 0,0.99673 1.59682,1.23169 1.20851,1.36831 -1.92617,0.67764 -6.999942,-1.54228 -12.991651,-4.59645 -12.421529,-6.33167 0.844083,-2.56904 9.270009,-2.79974 12.347699,-0.33809 2.61929,2.095 2.61492,2.10789 -0.24568,0.72601 -1.60179,-0.7738 -3.70179,-1.37982 -4.666663,-1.34676 -0.964876,0.0331 0.04568,0.84222 2.245683,1.79807 2.2,0.95585 4.63175,1.50997 5.40389,1.23137 1.40143,-0.50525 5.92945,-7.39884 5.92945,-9.02674 0,-1.64622 -11.36416,-6.00407 -15.732885,-6.03315 -8.882679,-0.0591 -16.26712,6.33592 -16.26712,14.08759 0,6.44113 4.250408,10.63868 14.087461,13.91224 6.535394,2.17484 8.619144,3.45502 8.307154,5.10362 -0.57413,3.03376 -7.879741,3.54675 -12.976378,0.91118 -2.246697,-1.16182 -4.084904,-2.41239 -4.084904,-2.77906 0,-0.36666 1.770204,0.24875 3.933787,1.36758 4.186253,2.1648 12.066215,2.77333 12.066215,0.93182 0,-0.60632 -1.7311,-0.84833 -3.846882,-0.5378 -2.115784,0.31054 -5.154721,-0.13533 -6.753196,-0.99081 -5.1311,-2.74608 -7.725783,-2.57028 -10.829768,0.73376 -1.669247,1.77683 -2.57658,3.2306 -2.016299,3.2306 0.560283,0 2.216915,-1.35 3.681404,-3 2.108415,-2.37549 2.039628,-2.06284 -0.330434,1.50191 l -2.993146,4.5019 3.210827,2.65632 3.210825,2.65632 -3.490709,-2.07366 c -3.168211,-1.8821 -3.784131,-1.87583 -6.666667,0.0679 l -3.175957,2.1416 3.232418,-3.55945 3.232419,-3.55947 -3.232419,-3.65713 -3.232418,-3.65712 3.333333,2.65712 3.333334,2.65713 -2.43883,-2.88822 -2.438829,-2.88823 -4.747234,3.22156 c -6.45545,4.38079 -11.633396,4.1684 -16.477672,-0.67588 -8.706173,-8.70617 -2.040549,-23.27876 9.633614,-21.06131 2.14831,0.40806 1.591746,0.65278 -1.76761,0.77718 -9.152523,0.33893 -13.846755,12.00852 -7.656601,19.03386 l 2.773505,3.14771 -2.106839,-3.29668 c -2.781112,-4.35173 -2.676406,-11.06333 0.226495,-14.51837 2.388804,-2.84316 11.939268,-4.18834 16.39733,-2.30954 1.290598,0.54391 3.246316,-0.38866 5.219294,-2.48881 2.791198,-2.97109 2.937671,-3.63707 1.269336,-5.77131 -1.037277,-1.32696 -0.631684,-1.11108 0.90132,0.47975 2.711135,2.81337 2.830554,2.82311 4.371285,0.356 0.871202,-1.39501 3.516926,-3.71495 5.879386,-5.1554 2.36246,-1.44045 3.56626,-2.62125 2.675111,-2.62399 -0.891149,-0.003 -3.657987,1.78415 -6.148528,3.97088 -4.434572,3.8936 -4.576049,3.92304 -6.838336,1.42326 -1.325242,-1.46439 -3.202566,-2.21014 -4.403532,-1.74928 -1.252427,0.4806 -1.752195,0.25116 -1.244008,-0.5711 0.562726,-0.91052 -3.387707,-1.32128 -11.703786,-1.21694 -12.020272,0.1508 -12.731397,0.32689 -16.749753,4.14784 -4.436195,4.21825 -7.993335,10.03301 -7.906263,12.92414 0.02871,0.95308 0.961008,-0.36284 2.071788,-2.92426 2.289913,-5.28048 6.607995,-10.29382 10.542689,-12.24014 1.466667,-0.72549 0.641538,0.33188 -1.83362,2.34974 -4.62911,3.77382 -9.424348,12.49689 -9.462994,17.21421 -0.04741,5.78791 3.11854,13.42192 7.300716,17.60411 2.417744,2.41773 3.968153,4.39589 3.445353,4.39589 -1.841748,0 -7.992923,-7.38852 -9.990381,-12 -1.11175,-2.56667 -2.044847,-3.88687 -2.073551,-2.93379 -0.140257,4.65707 10.326816,17.42634 12.953705,15.80283 0.672423,-0.41559 2.97118,-0.20645 5.108347,0.46475 2.137167,0.6712 6.285759,0.86114 9.219092,0.4221 2.933334,-0.43904 6.533334,-0.90709 8,-1.04012 z m 46.000006,-1.21918 c 0,-0.27687 -1.05,-1.32687 -2.33334,-2.33334 -2.11474,-1.65849 -2.1619,-1.61133 -0.5034,0.50342 1.74182,2.221 2.83674,2.9273 2.83674,1.82992 z M 67.581796,171 c 1.399137,-1.28333 1.734165,-1.78377 0.744506,-1.11208 -0.989658,0.67168 -4.017937,1.65268 -6.729506,2.18 -4.867415,0.94656 -4.876886,0.9607 -0.744507,1.11208 2.31708,0.0849 5.32126,-0.8883 6.729507,-2.18 z m 56.640624,-0.36605 c 2.85781,1.39005 2.91328,1.35392 0.6817,-0.44416 -2.35007,-1.89355 -2.35007,-1.9778 0,-2.58556 2.11744,-0.5476 2.07841,-0.64808 -0.30412,-0.78289 -1.50333,-0.0851 -3.57439,-0.90467 -4.60236,-1.82134 -1.56937,-1.39945 -1.60949,-1.32093 -0.25023,0.48976 1.29645,1.72702 1.21726,2.48968 -0.39763,3.82994 -1.69992,1.4108 -2.04123,1.17694 -2.17434,-1.48978 -0.0868,-1.73978 -0.0868,-3.61325 0,-4.16325 0.0868,-0.55 -0.3589,-1 -0.99054,-1 -0.63164,0 -1.01423,-1.35 -0.8502,-3 0.17399,-1.7502 0.0541,-1.99551 -0.28783,-0.58884 -0.49586,2.04004 -0.9173,2.14265 -2.738,0.66667 -1.2293,-0.99655 -0.90189,-0.0295 0.76364,2.2555 1.60355,2.2 3.04715,5.62634 3.20798,7.61408 0.26817,3.31428 0.48067,3.44372 2.56172,1.56039 1.80986,-1.63789 2.89912,-1.74733 5.38021,-0.54052 z M 136,172.23092 c 0,-0.60632 -1.8,-0.83822 -4,-0.51533 -2.2,0.32289 -4,0.81897 -4,1.10241 0,0.28343 1.8,0.51534 4,0.51534 2.2,0 4,-0.49608 4,-1.10242 z M 84.533335,162.13334 c -3.559491,-3.5595 -4.533334,-5.61806 -4.533334,-9.58279 v -5.04945 l -3.86436,3.70229 c -3.268459,3.13137 -4.296488,3.47101 -6.666667,2.20253 -1.541269,-0.82485 -2.802306,-1.19974 -2.802306,-0.83308 0,0.36667 1.256609,1.33919 2.792465,2.16115 2.310287,1.23643 3.346315,0.97417 6,-1.51884 l 3.207535,-3.01332 v 3.51936 c 0,3.31813 6.944613,12.94548 9.338123,12.94548 0.584032,0 -0.978123,-2.04 -3.471456,-4.53333 z m 48.438885,3.72777 c -0.44305,-0.44305 -1.59305,-0.49041 -2.55555,-0.1052 -1.06365,0.42563 -0.7477,0.74157 0.80555,0.80555 1.40556,0.0579 2.19306,-0.25723 1.75,-0.7003 z m -97.381565,-5.5024 C 35.252597,159.06142 34.953771,159.8 34.926599,162 c -0.02717,2.2 0.24942,3.26142 0.614651,2.35871 0.365231,-0.90271 0.387463,-2.70271 0.0494,-4 z M 102,154.66667 c -1.46667,-0.63025 -3.566665,-1.14591 -4.666665,-1.14591 -1.260639,0 -1.014186,0.42362 0.666666,1.14591 1.466667,0.63025 3.566669,1.14591 4.666669,1.14591 1.26064,0 1.01418,-0.42362 -0.66667,-1.14591 z m 54.15744,-11.48457 c 1.74675,-1.54986 4.3759,-3.4816 5.84256,-4.29279 1.59215,-0.88059 1.9244,-1.49123 0.82456,-1.51543 -1.01316,-0.0223 -4.43341,2.55076 -7.60057,5.71794 l -5.75848,5.75846 -0.50403,-4.75846 c -0.2772,-2.61718 -0.5002,-1.03215 -0.49552,3.52225 l 0.008,8.28072 2.25355,-4.94739 c 1.23945,-2.72106 3.68271,-6.21545 5.42944,-7.7653 z m -38.97877,3.15124 c -0.0851,-3.85 -0.4209,-5.9924 -0.74629,-4.76088 -0.52327,1.98041 -1.1431,1.86486 -5.36473,-1 -2.62521,-1.78152 -5.73938,-3.22595 -6.92038,-3.20984 -1.181,0.0161 0.32871,1.15362 3.3549,2.52784 7.02987,3.19226 7.90068,4.72752 5.20029,9.16818 l -2.19406,3.60803 2.7458,-3.14771 2.7458,-3.14772 v 3.48106 c 0,1.91457 0.3,3.48104 0.66667,3.48104 0.36667,0 0.59706,-3.15 0.512,-7 z m 24.15467,5.73472 c 5.87141,-1.04474 5.80712,-1.07119 -3,-1.2345 -5.22238,-0.0968 -9,0.39276 -9,1.16644 0,1.54764 3.57088,1.5679 12,0.068 z m -1,-14.38438 c -3.85,-0.26933 -10.15,-0.26933 -14,0 -3.85,0.26934 -0.7,0.48971 7,0.48971 7.7,0 10.85,-0.22037 7,-0.48971 z M 176,137.33334 c -1.1,-0.71088 -4.1,-1.21655 -6.66666,-1.12371 l -4.66667,0.16879 5.33333,0.95492 c 7.8745,1.4099 8.18168,1.4099 6,0 z M 64.333334,136.39236 c -1.65,-0.31781 -4.35,-0.31781 -6,0 -1.65,0.3178 -0.3,0.57783 3,0.57783 3.3,0 4.65,-0.26003 3,-0.57783 z m 35.333334,0.0219 c -1.283333,-0.33536 -3.383333,-0.33536 -4.666667,0 -1.283333,0.33537 -0.233333,0.60977 2.333334,0.60977 2.566666,0 3.616665,-0.2744 2.333333,-0.60977 z"
       id="path1374"
       inkscape:connector-curvature="0" />
    <path
       style="fill:#9d0435;stroke-width:1.33333337"
       d="m 49.921507,183.25978 c -2.546758,-2.04038 -2.545502,-2.05392 0.07849,-0.84683 1.466666,0.67469 3.566666,1.56043 4.666666,1.96829 1.727659,0.64059 1.71697,0.75591 -0.07849,0.84683 -1.143172,0.0579 -3.243172,-0.82783 -4.666667,-1.96829 z m 16.495161,1.16274 c 0.9625,-0.38516 2.1125,-0.3378 2.555556,0.1052 0.443054,0.44306 -0.344446,0.75819 -1.75,0.7003 -1.553258,-0.064 -1.8692,-0.37992 -0.805556,-0.80555 z M 88.000001,184 c -2.437288,-1.57509 -0.332113,-1.57509 3.333334,0 1.75832,0.75558 1.985406,1.17087 0.666666,1.2192 -1.1,0.0403 -2.9,-0.50832 -4,-1.2192 z m 17.332649,-0.1646 c 1.83296,-0.7309 4.56186,-2.34286 6.06423,-3.58216 1.50237,-1.23928 1.04321,-0.60324 -1.02035,1.41343 -2.06356,2.01667 -4.79247,3.62864 -6.06423,3.58215 -1.59183,-0.0581 -1.27391,-0.49858 1.02035,-1.41342 z m 15.25553,-0.57562 c -2.54676,-2.04038 -2.54551,-2.05392 0.0785,-0.84683 1.46667,0.67469 3.56667,1.56043 4.66667,1.96829 1.72765,0.64059 1.71696,0.75591 -0.0785,0.84683 -1.14317,0.0579 -3.24317,-0.82783 -4.66666,-1.96829 z m 18.07781,0.57562 c 1.83296,-0.7309 4.56185,-2.34286 6.06423,-3.58216 1.50237,-1.23928 1.04321,-0.60324 -1.02035,1.41343 -2.06357,2.01667 -4.79247,3.62864 -6.06424,3.58215 -1.59183,-0.0581 -1.27391,-0.49858 1.02036,-1.41342 z m 34.66735,0.98678 c 0,-0.28114 1.20082,-0.82518 2.6685,-1.20899 1.46768,-0.3838 2.33227,-0.15379 1.92131,0.51116 -0.71767,1.16121 -4.58981,1.74992 -4.58981,0.69783 z M 73.333334,182.16326 c 0,-0.27687 1.05,-1.32687 2.333334,-2.33334 2.114741,-1.65849 2.161901,-1.61133 0.503406,0.50342 -1.741825,2.221 -2.83674,2.9273 -2.83674,1.82992 z m 81.873326,-2.49659 -2.53999,-3 3,2.53999 c 2.81925,2.38696 3.60699,3.46001 2.53999,3.46001 -0.25302,0 -1.60302,-1.35 -3,-3 z m 27.46001,-0.33333 C 184.389,177.5 186.09818,176 186.46484,176 c 0.36667,0 -0.7425,1.5 -2.46484,3.33334 -1.72233,1.83333 -3.4315,3.33333 -3.79817,3.33333 -0.36667,0 0.74251,-1.5 2.46484,-3.33333 z m -139.460019,-1 -2.539984,-3 3,2.53998 c 2.81926,2.38696 3.606988,3.46002 2.539984,3.46002 -0.253009,0 -1.603009,-1.35 -3,-3 z m 35.460017,-1.50342 c 0,-0.27686 1.05,-1.32686 2.333333,-2.33333 2.114742,-1.65849 2.161902,-1.61133 0.503407,0.50341 -1.741825,2.221 -2.83674,2.92731 -2.83674,1.82992 z m 36.105262,-2.94102 c 0.064,-1.55327 0.37992,-1.8692 0.80556,-0.80556 0.38516,0.96249 0.33779,2.11249 -0.10527,2.55556 -0.44306,0.44305 -0.75819,-0.34446 -0.70029,-1.75 z m 35.85518,-0.62948 c -0.80669,-1.50732 -1.26915,-3.3333 -1.02768,-4.05771 0.24148,-0.72441 1.12827,0.50885 1.97065,2.74059 1.7519,4.64129 1.22783,5.37329 -0.94297,1.31712 z m -111.348601,-0.0148 c -0.483378,-0.78212 -0.592911,-1.708 -0.243407,-2.05751 0.349504,-0.34951 0.990755,0.29041 1.425001,1.42204 0.901579,2.34948 0.133134,2.76275 -1.181594,0.63547 z m 19.721492,0.50294 c 1.283333,-0.33536 3.383333,-0.33536 4.666667,0 1.283333,0.33538 0.233333,0.60978 -2.333334,0.60978 -2.566666,0 -3.616666,-0.2744 -2.333333,-0.60978 z m 16.829927,-1.41422 c -1.658495,-2.11475 -1.611335,-2.16191 0.503406,-0.50342 1.283334,1.00647 2.333334,2.05647 2.333334,2.33334 0,1.09738 -1.094915,0.39108 -2.83674,-1.82992 z m 17.503407,1.80672 c 0,-0.28966 2.349529,-0.7507 5.221177,-1.02455 2.871648,-0.27385 4.936238,-0.0369 4.587978,0.52663 -0.63367,1.02529 -9.809155,1.49104 -9.809155,0.49792 z M 128,174.14539 c 0,-0.28644 2.05791,-0.76105 4.57314,-1.05468 2.51522,-0.29364 4.27982,-0.0593 3.92132,0.52079 C 135.84923,174.65598 128,175.14932 128,174.14588 Z m 41.33334,-0.45521 c 1.83333,-0.33707 4.23333,-1.30536 5.33333,-2.15176 1.74011,-1.33894 1.76221,-1.23571 0.17008,0.79442 -1.00868,1.28616 -3.40221,2.25184 -5.33333,2.15176 L 166,174.30352 l 3.33334,-0.61285 z m -116.793355,-3.35684 -2.539984,-3 3,2.53998 c 2.81926,2.38696 3.606988,3.46002 2.539984,3.46002 -0.25301,0 -1.60301,-1.35 -3,-3 z m 62.231945,-3.11111 c 0.064,-1.55327 0.37992,-1.8692 0.80556,-0.80556 0.38516,0.96249 0.33779,2.11249 -0.10527,2.55556 -0.44306,0.44305 -0.75819,-0.34445 -0.70029,-1.75 z M 161.71468,162 c 0.0107,-3.66666 0.26896,-5.00841 0.57543,-2.98166 0.30648,2.02674 0.29828,5.02674 -0.0181,6.66666 -0.31648,1.63992 -0.56723,-0.0184 -0.55723,-3.685 z m 28,0 c 0.0107,-3.66666 0.26896,-5.00841 0.57543,-2.98166 0.30648,2.02674 0.29828,5.02674 -0.0181,6.66666 -0.31648,1.63992 -0.56723,-0.0184 -0.55723,-3.685 z M 123.75,165.75586 c 0.9625,-0.38516 2.1125,-0.3378 2.55556,0.1052 0.44305,0.44306 -0.34445,0.75818 -1.75,0.70029 -1.55326,-0.064 -1.8692,-0.37992 -0.80556,-0.80555 z m -74.107329,-4.42252 c 0,-2.56667 0.274394,-3.61667 0.609764,-2.33334 0.33537,1.28334 0.33537,3.38334 0,4.66667 -0.33537,1.28333 -0.609764,0.23333 -0.609764,-2.33333 z M 148,163.7526 c 0,-0.8694 -1.35,-3.1151 -3,-4.99045 -2.5942,-2.94851 -2.62465,-3.09501 -0.22513,-1.08303 1.52617,1.27968 3.17617,1.92539 3.66667,1.43491 0.49049,-0.49049 0.8918,0.7082 0.8918,2.66375 0,1.95556 -0.3,3.55556 -0.66667,3.55556 C 148.3,165.33334 148,164.622 148,163.7526 Z M 83.206652,161 l -2.539984,-3 3,2.53999 c 2.81926,2.38696 3.606988,3.46001 2.539984,3.46001 -0.253009,0 -1.603009,-1.35 -3,-3 z m 94.231948,0.8889 c 0.064,-1.55327 0.37992,-1.8692 0.80555,-0.80556 0.38516,0.96249 0.3378,2.11249 -0.1052,2.55556 -0.44307,0.44305 -0.75819,-0.34446 -0.70029,-1.75 z m -76.35527,-5.46638 c 0.9625,-0.38516 2.1125,-0.3378 2.55556,0.1052 0.44306,0.44307 -0.34444,0.75819 -1.75,0.7003 -1.55326,-0.064 -1.8692,-0.37992 -0.80556,-0.80555 z m -20.823397,-3.75585 c 0.02717,-2.2 0.325998,-2.93859 0.664056,-1.64129 0.338058,1.29729 0.315826,3.09729 -0.0494,4 -0.365236,0.9027 -0.641829,-0.15871 -0.614656,-2.35871 z m 12.334934,0.55049 c -0.492715,-0.79724 -0.356698,-1.98866 0.302264,-2.64762 0.708589,-0.70859 1.198109,-0.1164 1.198109,1.44952 0,3.02964 -0.246681,3.22661 -1.500373,1.1981 z M 128,153.60107 c 0,-0.58608 2.1,-0.82044 4.66667,-0.52079 2.56667,0.29964 4.66667,0.77916 4.66667,1.0656 0,0.28643 -2.1,0.52079 -4.66667,0.52079 C 130.1,154.66667 128,154.18715 128,153.60107 Z M 38.666667,152.0787 c 0,-0.69006 0.593128,-1.62123 1.318062,-2.06926 0.755813,-0.46712 0.979342,0.0681 0.524014,1.25464 -0.886388,2.3099 -1.842076,2.73252 -1.842076,0.81462 z m 34.666667,0.75122 c 0,-0.27686 1.05,-1.32686 2.333334,-2.33333 2.114741,-1.65849 2.161901,-1.61133 0.503406,0.50341 -1.741825,2.221 -2.83674,2.92731 -2.83674,1.82992 z M 104,152 c -1.20172,-0.77661 -1.36618,-1.30065 -0.41202,-1.31292 0.87339,-0.0107 1.9588,0.57959 2.41202,1.31292 1.02307,1.65538 0.5615,1.65538 -2,0 z m 69.16326,-1 c -1.6585,-2.11474 -1.61134,-2.1619 0.50341,-0.50341 2.221,1.74183 2.92731,2.83675 1.82992,2.83675 -0.27687,0 -1.32687,-1.05 -2.33333,-2.33334 z m -55.44857,-5 c 0.01,-3.66666 0.26895,-5.00841 0.57542,-2.98166 0.30647,2.02674 0.29828,5.02674 -0.0182,6.66666 -0.31648,1.63992 -0.56723,-0.0183 -0.55722,-3.685 z m 32.95198,4.74536 c 0,-0.69005 0.59313,-1.62122 1.31807,-2.06925 0.75581,-0.46712 0.97933,0.0681 0.52401,1.25464 -0.88639,2.30989 -1.84208,2.73252 -1.84208,0.81461 z m 14.31111,-0.24414 c 0.90445,-0.91123 1.98032,-1.3209 2.39084,-0.91038 0.41052,0.41052 -0.32948,1.15607 -1.64444,1.65678 -1.90027,0.72357 -2.05342,0.57042 -0.7464,-0.7464 z m -32.64444,-0.80584 c 2.75,-0.28766 7.25,-0.28766 10,0 2.75,0.28766 0.5,0.52301 -5,0.52301 -5.5,0 -7.75,-0.23535 -5,-0.52301 z m -89.000006,-4.36204 c 1.327315,-1.46667 2.7133,-2.66667 3.079967,-2.66667 0.366666,0 -0.419319,1.2 -1.746634,2.66667 C 43.339353,146.8 41.953367,148 41.586701,148 c -0.366667,0 0.419318,-1.2 1.746633,-2.66666 z M 155.33334,144 c 1.32732,-1.46666 2.7133,-2.66666 3.07997,-2.66666 0.36667,0 -0.41932,1.2 -1.74664,2.66666 -1.32732,1.46667 -2.71331,2.66667 -3.07997,2.66667 -0.36667,0 0.41932,-1.2 1.74664,-2.66667 z M 84.666668,142.66667 C 85.993983,141.2 87.379968,140 87.746635,140 c 0.366666,0 -0.419319,1.2 -1.746634,2.66667 -1.327314,1.46667 -2.7133,2.66667 -3.079966,2.66667 -0.366667,0 0.419318,-1.2 1.746633,-2.66667 z m -25.666667,-4.91911 c 1.283333,-0.33536 3.383333,-0.33536 4.666667,0 1.283333,0.33538 0.233333,0.60978 -2.333334,0.60978 -2.566666,0 -3.616666,-0.2744 -2.333333,-0.60978 z m 36.666667,0.0361 c 0.916667,-0.36988 2.416667,-0.36988 3.333333,0 0.916667,0.36988 0.166667,0.67252 -1.666666,0.67252 -1.833334,0 -2.583334,-0.30264 -1.666667,-0.67252 z m 72.692042,-0.0409 c 1.29729,-0.33805 3.09729,-0.31582 4,0.0493 0.90271,0.36524 -0.15871,0.64182 -2.35871,0.61465 -2.2,-0.0272 -2.93858,-0.326 -1.64129,-0.66405 z"
       id="path1372"
       inkscape:connector-curvature="0" />
  </g>
</svg>
